<svg xmlns="http://www.w3.org/2000/svg" viewBox="0 0 599.16 599.16"><defs><style>.cls-1{fill:#0c3352;}.cls-2{fill:#fff;}.cls-3{fill:none;}</style></defs><g id="Layer_2" data-name="Layer 2"><g id="Layer_1-2" data-name="Layer 1"><path class="cls-1" d="M370.14,347.31c-5.27.92-10.32,1.75-10.65,1.78-1.44.11-1.44-19.12-1.15-35.95.2-12.07.54-22.91.61-24.52a221.29,221.29,0,0,0,31.34-5.5l.32,1.24c0,1.48-4.38,58.42-5.14,59.05-.38.31-2.83,1.44-3.37,1.71C381.77,345.29,375.84,346.35,370.14,347.31Z"/><path class="cls-1" d="M359,288.62c-.07,1.61-.41,12.45-.61,24.52h0a55.72,55.72,0,0,1-7.29,3.7c-13.64,5.77-33.63,8-61.23-1.41-1.95-.67-3.93-1.39-6-2.18.58-10.52,1.05-20.23,1.12-23.42A414.1,414.1,0,0,0,359,288.62Z"/><path class="cls-1" d="M283.83,313.25c-.88,15.91-2,33.68-2.33,33.79s-5.59-1.09-11.87-2.62c-9.23-2.24-20.51-5.23-21-6-.79-1.26-.59-1.68-.7-3.07-.09-1.06,1.62-50.65,1.62-50.65v0c9.74,2.42,22,4.15,35.38,5.16C284.88,293,284.41,302.73,283.83,313.25Z"/><path class="cls-2" d="M215.58,64.72c47.16-5.16,145.14-8.84,208.86,1.23,1.89.29,5.45.86,6.4,1.12.63.16.47.39-.12.61a46.74,46.74,0,0,1-6.39,1.39c-67,11.58-215.51-1.79-219.79-2.49a1.85,1.85,0,0,1,.65-.45C207.66,65.12,213.85,64.9,215.58,64.72Z"/><path class="cls-1" d="M431.24,67.79v13c-2.22.39-4.51.77-6.82,1.1-65,10-161.41,5.61-207.61-3-4.13-.76-7.85-1.57-11.11-2.4-.65-1.66-3-7.87-1.16-9.87,4.28.7,152.77,14.07,219.79,2.49a46.74,46.74,0,0,0,6.39-1.39Z"/><path class="cls-1" d="M420.13,137.15c-12,5.18-49.72,6.21-59.14,7-41,3.52-104.26-1-140.32-4.15-10.28-.92-18.33-1.73-23-2.22l-4.65-.5s-.09,36.06-1.75,64.13c-1.08,17.88-2.78,32.53-5.5,32.55-23.91.05-17.12-4.28-16.33-26.88,1-28.74,1.1-57.59-.16-86.15,16.74-.41,33.48-.34,50.22,0,49.65.89,99.33,3.88,148.93,2.44,17.44-.07,41.13,0,53.14-3.86.65-.2,1.25-.42,1.84-.65.42,0,.47,15,.47,15C423.63,135.15,422.31,136.2,420.13,137.15Z"/><path class="cls-1" d="M245.44,518.4c-.83-2-1.55-58.16-1.86-97.65,31.12,14.74,128.49,10.77,150.59-6.89h.23c-.36,38.3-1.55,97.31-1.71,98.12-.51,3-1,6.37-2.55,9a62.2,62.2,0,0,1-6.94,8.77l-.15.29c-22.24,17.3-121.12,7.41-129.78-1.23C253.27,528.81,246.07,520,245.44,518.4Z"/><path class="cls-1" d="M394.17,413.86c-22.1,17.66-119.47,21.63-150.59,6.89,0-1.32,0-2.62,0-3.9,23.16-17.21,126.57-15.33,150.62-6.08h.27c0,1,0,2,0,3.09Z"/><path class="cls-1" d="M185.37,235.11c-10.31,0-14.57-.86-16.82-3.35s-1.91-6.46-1.21-12.87c.34-3.18.78-7.14.94-11.82,1.08-30.87,1-59-.16-86.07l-.05-1.15,1.15,0c15.35-.36,31.79-.36,50.26,0,15.92.29,32.11.8,47.77,1.3,33.16,1,67.44,2.13,101.11,1.15h2.27c17.47-.06,39.22-.13,50.55-3.79.64-.2,1.22-.42,1.78-.63l.41-.08c1.36,0,1.54,0,1.59,16.15-.28,1.77-1.7,3.11-4.38,4.27-9.83,4.23-35.63,5.7-51,6.57-3.64.21-6.6.38-8.45.54-41.27,3.54-105.75-1.09-140.52-4.16-11.2-1-19.26-1.82-23.06-2.22l-3.41-.36c0,6.6-.28,38.09-1.75,62.94-2,33.58-4.89,33.6-6.61,33.62ZM170.41,122c1.15,26.76,1.18,54.61.11,85.1-.17,4.77-.6,8.78-1,12-.63,5.78-1,9.27.65,11.12s5.93,2.67,15.51,2.6c.5-.36,2.71-3.79,4.38-31.5s1.75-63.7,1.75-64.06v-1.25l1.24.14,4.64.49c3.8.4,11.85,1.22,23,2.22,34.69,3.07,99,7.69,140.12,4.15,1.88-.16,4.86-.33,8.53-.54,14.26-.81,40.8-2.32,50.27-6.39,2.48-1.08,3-2,3-2.39,0-4.38-.12-10.69-.27-13.32l-.6.19c-11.65,3.77-33.6,3.85-51.23,3.9H368.4c-33.71,1-68-.1-101.22-1.15-15.65-.49-31.83-1-47.74-1.29C201.46,121.71,185.41,121.7,170.41,122Z"/><path class="cls-1" d="M422.49,119.19l-2.24-.21c.22-2.26,3.07-35.64,3.07-37h2.24C425.56,83.59,422.52,118.87,422.49,119.19Z"/><path class="cls-1" d="M220.58,120.92h-2.25c0-.35-.08-2-.22-4.54-.63-10.85-2.24-36.12-2.41-37.27l2.21-.39c.19,1,1.89,28.14,2.44,37.54C220.49,118.83,220.58,120.56,220.58,120.92Z"/><path class="cls-1" d="M335.71,88.8c-47.25,0-93-4-119.11-8.84-4.09-.76-7.85-1.57-11.17-2.42l-.56-.14-.21-.54c-2.21-5.62-2.52-9.33-.95-11a3,3,0,0,1,1-.71c2-.82,5.64-1.13,9.2-1.39.65,0,1.19-.08,1.54-.12,49.4-5.4,147-8.59,209.16,1.24,3.71.58,5.79.94,6.53,1.16,1,.25,1.19.89,1.21,1.25a1.23,1.23,0,0,1-.09.54h.09V81.73l-.93.16c-2.23.38-4.53.77-6.85,1.1C397.59,87.14,366.33,88.8,335.71,88.8ZM206.54,75.51c3.13.78,6.65,1.54,10.47,2.24,42.93,8,138.82,13.54,207.24,3,2-.29,3.95-.61,5.87-.93V69.05c-1.38.38-3.4.75-5.29,1.07l-.31.06c-64.39,11.12-206.23-.8-219.4-2.39C204.76,68.88,205,71.34,206.54,75.51Zm4.84-9.34C242.15,69,365.46,78.11,424.14,68l.31,0,2.43-.43-2.61-.42c-62-9.8-159.29-6.62-208.57-1.23-.37,0-.93.08-1.62.13S212.38,66.08,211.38,66.17Z"/><path class="cls-1" d="M315.08,292.06c-10.29,0-20.51-.37-30.21-1.11-13.8-1-26.1-2.83-35.57-5.19C239,283.21,232,280,228.4,276.26c-.88-.88-8.79-134.86-8.85-136.19l1.12-.14h1.12c.38,8.31,7.78,128,8.49,135,3.32,3.3,10.06,6.27,19.56,8.61,9.35,2.33,21.52,4.1,35.19,5.13a411.68,411.68,0,0,0,73.79-1.21A219.2,219.2,0,0,0,390,282c12.28-3.24,20.48-7.18,24.36-11.72a36.85,36.85,0,0,0,1.57-5.62c.16-2,3-120.15,3.07-127.56l2.25-.13v.14c0,1.18-2.89,126.91-3.13,128,0,0-1.15,5.54-2.05,6.61-4.19,4.9-12.77,9.08-25.5,12.44a221.1,221.1,0,0,1-31.51,5.52A401.74,401.74,0,0,1,315.08,292.06Z"/><path class="cls-1" d="M281.53,348.16c-.64,0-2.76-.37-12.17-2.65-20.78-5.06-21.38-6-21.67-6.49a4.82,4.82,0,0,1-.82-2.81,7.32,7.32,0,0,0,0-.76c-.09-1.07,1.33-42.48,1.62-50.77l2.24.07c-.47,13.61-1.67,49.21-1.62,50.54,0,.31,0,.59.05.84a2.53,2.53,0,0,0,.38,1.54c1.21.65,8.45,2.75,20.39,5.66,5.3,1.29,9.05,2.13,10.7,2.45.39-3.43,1.2-15.89,2.12-32.59.6-10.91,1.05-20.31,1.12-23.38l2.24,0c-.06,3.17-.51,12.6-1.12,23.54-1.89,34.41-2.13,34.49-3.12,34.8A.92.92,0,0,1,281.53,348.16Z"/><path class="cls-1" d="M359.08,350.24l-.51-.4c-.68-.64-1.95-1.83-1.35-36.72.21-12.3.55-23.15.61-24.55l2.24-.15v.2c-.06,1.44-.4,12.25-.61,24.54-.45,26.39.22,33,.6,34.71,1.52-.24,5.4-.88,9.89-1.66,7.42-1.26,11.29-2,11.75-2.14l.59-.29c.54-.26,1.68-.8,2.22-1.09.89-4.77,4.94-55,5-58.34h2.24c0,.55-4.09,58.71-5.55,59.92a21,21,0,0,1-2.92,1.53l-.65.31c-.19.1-.61.32-12.28,2.3-4.48.78-10.28,1.75-10.76,1.79Z"/><path class="cls-1" d="M384.05,530.49,382.36,529l.78-.88a53.84,53.84,0,0,0,6-7.73c1.33-2.21,1.83-5.18,2.28-7.8l.14-.81c.14-1.5,1.32-59.07,1.69-97.94l0-3.11c.19-22.25,0-27.85-.2-28.63a10.82,10.82,0,0,0-9.46-5.81,18.79,18.79,0,0,1-5.35-.88,13.45,13.45,0,0,0-1.86-.41,13.76,13.76,0,0,1-2.41-.57,7.16,7.16,0,0,1-4.79-6.66c-.14-1.95-.09-3.95-.05-5.89,0-1,.05-1.92.05-2.86v-5.1c0-1.56-.08-5.61-.21-6.44l1-.25V346l1.17,1.14c.19,1.21.24,6.14.24,6.8V359c0,1,0,1.93,0,2.91-.05,1.89-.09,3.84,0,5.69a4.93,4.93,0,0,0,3.34,4.71,11.21,11.21,0,0,0,2,.46,16.06,16.06,0,0,1,2.15.48,16.45,16.45,0,0,0,4.79.78,13,13,0,0,1,11.4,7.18c.26.49.62,1.2.39,29.53l-.05,3.12c-.34,36.87-1.53,97.29-1.73,98.3l-.13.79c-.48,2.81-1,6-2.56,8.57a55.15,55.15,0,0,1-6.28,8.06Z"/><path class="cls-1" d="M329.22,540.85c-34.06,0-71.19-5.71-76.74-11.25-1.3-1.58-7.42-9.14-8.08-10.79-1.13-2.71-1.82-82.15-2-98l0-3.91c-.15-22.28-.17-33.91-.05-34.58.44-2.57,1-3.69,3.25-4.82.85-.42,4.47-2.12,6.33-2.81,1.33-.47,7.24-2.64,9-3.31.23-.09,6.15-2.53,6.57-7.68.27-3.18,1-19.12,1-19.28l2.24.1c0,.66-.7,16.15-1,19.36-.53,6.52-7.69,9.47-8,9.59-1.8.68-7.74,2.86-9.06,3.33-1.69.62-5.19,2.26-6.09,2.71-1.46.73-1.69,1.09-2,3.2-.06.69-.08,10,.09,34.18l0,3.91c.37,46.37,1.1,94.68,1.8,97.28.33.83,4.15,5.79,7.64,10.07,8.76,8.73,106.73,17.77,128.22,1.06l1.38,1.77C374.43,538.17,352.54,540.84,329.22,540.85Z"/><path class="cls-2" d="M306.4,430.89c-25.7,0-50.13-2.88-63.3-9.12l.64-2.18.45.22c31.29,14.82,127.65,10.46,149.28-6.82l1.4,1.75C382,425.06,342.9,430.89,306.4,430.89Z"/><path class="cls-1" d="M244.22,417.75l-1.63-1.57.31-.25c23.45-17.42,127.69-15.43,151.68-6.21l-.81,2.09C370.07,402.7,267.28,400.61,244.22,417.75Z"/><path class="cls-1" d="M348.94,371l-1-2c1.2-.59,6-5.35,8.39-8.23-27.48,6.58-76.35,2.56-81.53-.54a1.65,1.65,0,0,1-.84-1l2.19-.49a.72.72,0,0,0-.23-.41c3.15,2.34,55,7.37,82.5-.38l1.49-.42-.06,1.54C359.77,361.39,350.57,370.19,348.94,371Z"/><path class="cls-1" d="M324.87,323c-10.88,0-22.72-2.16-35.43-6.5-2-.68-4-1.4-6-2.19l-.39-.16,1-2,.26.11c1.94.74,3.9,1.45,5.84,2.12,23.45,8,43.79,8.48,60.43,1.44a55.17,55.17,0,0,0,7.15-3.63l1.16,1.92a56.5,56.5,0,0,1-7.44,3.78A67.65,67.65,0,0,1,324.87,323Z"/><path class="cls-1" d="M315.4,333.2c-12.8,0-24.41-.34-25.3-1.44-.75-.9-1.25-6.32-1.49-16.12l2.24-.06c.15,6.1.55,12.92,1,14.6,5,1.08,51.46,1.09,58,0,0-8.11,0-11.63.25-13.15h0c.18-1.17.5-1.17,1.06-1.17h1.12l0,1.17h-.94l.88.19c-.1.77-.14,8.87-.14,13.79l-.08.42c-.3.72-1.09.84-1.72.94C348.38,332.69,331,333.2,315.4,333.2Z"/><path class="cls-2" d="M319.38,530.82c-20.33,0-40.56-2.12-45-5.62l1.39-1.76c6.62,5.22,62.93,7.84,82.83,1.17A35.22,35.22,0,0,0,352,523a91.76,91.76,0,0,0-10.28-.49v-2.24a93.39,93.39,0,0,1,10.51.5c.07,0,9.07,1.33,9.74,3.93l.24.94-.9.37C353.31,529.35,336.31,530.82,319.38,530.82Z"/><path class="cls-2" d="M318.07,512.08c-25.2,0-51.17-2.3-68.53-7.92l.69-2.13c34.36,11.1,105.84,8.88,132.52,1.6l.59,2.16C369.33,509.62,344.11,512.08,318.07,512.08Z"/><rect class="cls-1" x="169.14" y="117.51" width="50.2" height="2.24" transform="translate(-10.07 18.33) rotate(-5.27)"/><polygon class="cls-1" points="192.35 201.54 190.11 201.32 196.6 136.88 198.83 137.14 198.74 137.92 192.35 201.54"/><rect class="cls-3" width="599.16" height="599.16"/></g></g></svg>