<?xml version="1.0" encoding="UTF-8" standalone="no"?>
<!-- Created with Inkscape (http://www.inkscape.org/) -->

<svg
   version="1.1"
   id="svg48"
   width="1000"
   height="1000"
   viewBox="0 0 1000 1000"
   sodipodi:docname="Untitled design (4).png"
   inkscape:export-filename="favicon.svg"
   inkscape:export-xdpi="96"
   inkscape:export-ydpi="96"
   xmlns:inkscape="http://www.inkscape.org/namespaces/inkscape"
   xmlns:sodipodi="http://sodipodi.sourceforge.net/DTD/sodipodi-0.dtd"
   xmlns="http://www.w3.org/2000/svg"
   xmlns:svg="http://www.w3.org/2000/svg">
  <defs
     id="defs52" />
  <sodipodi:namedview
     id="namedview50"
     pagecolor="#ffffff"
     bordercolor="#000000"
     borderopacity="0.25"
     inkscape:showpageshadow="2"
     inkscape:pageopacity="0.0"
     inkscape:pagecheckerboard="0"
     inkscape:deskcolor="#d1d1d1"
     showgrid="false" />
  <g
     inkscape:groupmode="layer"
     inkscape:label="Image"
     id="g54">
    <path
       style="fill:#000000;stroke:none"
       d="m 472.79119,6.3482347 c -14.027,2.72754 -29.716,2.27796 -44,3.6666903 -32.009,3.1121 -64.699,13.2329 -95,23.3333 -131.901,43.9671 -247.951197,157.005695 -293.666697,288.666695 -26.6151,76.652 -34.1768096,153.324 -26.3333,234 3.7468,38.539 16.7647,76.802 29.3333,113 10.5443,30.367 27.6062,58.628 44.3334,86 100.623297,164.657 317.249297,257.07998 505.333297,212.667 147.326,-34.786 280.622,-128.815 343.667,-270.667 15.339,-34.514 25.974,-69.187 34.666,-106 9.192,-38.93 14.591,-83.635 10.667,-124 -3.073,-31.61 -7.013,-62.997 -14.333,-94 -5.608,-23.748 -15.075,-46.176 -23,-69 -8.903,-25.641 -24.35,-51.524 -39.334,-74 -68.081,-102.122 -162.859,-170.743895 -279.333,-206.333295 -34.283,-10.4755 -68.612,-13.2261 -104,-16.6667003 -15.011,-1.45941 -34.03,-3.57758 -49,-0.66669 m 465,422.6666853 c -16.475,3.468 -19.813,25.694 -27.333,38 -11.798,19.305 -33.233,37.224 -54.667,44.667 -15.791,5.483 -33.032,9.983 -50,8.333 -18.913,-1.839 -37.065,-9.159 -56,-11 -30.682,-2.983 -62.854,-3.784 -93,3.333 -32.541,7.684 -66.627,22.113 -92,44.667 -9.391,8.347 -19.714,16.128 -27.667,26 -3.787,4.701 -8.677,15.222 -14.333,17 0,-14.894 8.853,-32.136 13.667,-46 8.167,-23.522 20.382,-48.892 39.333,-66 36.713,-33.143 93.419,-46.723 142,-42 20.359,1.979 40.582,5.861 60,12.333 6.948,2.316 17.164,5.99 24,1.334 6.066,-4.132 5.898,-13.221 1.833,-18.667 -6.592,-8.831 -20.9,-13.356 -30.833,-16.667 -38.142,-12.714 -79.791,-12.556 -119,-5.333 0.538,-5.112 5.257,-7.714 9,-10.833 9.43,-7.859 20.075,-14.871 31,-20.334 45.269,-22.634 96.843,-31.949 147,-21.5 14.573,3.036 27.108,10.37 41,15 5.715,1.905 12.809,4.483 19,2.334 9.975,-3.464 11.831,-18.615 5,-25.667 -11.223,-11.585 -37.993,-15.081 -53,-19.667 -15.993,-4.886 -32.018,-3.559 -48,-6.666 -25.42,-4.943 -51.175,6.373 -76,8.333 0.309,-11.749 14.695,-27 20.667,-37 10.854,-18.174 16.142,-37.917 22,-58 3.2,-10.974 7.808,-33.075 -1.667,-42 -10.327,-9.729 -19.784,-2.649 -23.667,9 -3.96,11.881 -3.807,24.889 -6.666,37 -3.103,13.142 -8.523,26.045 -14.5,38 -32.327,64.654 -95.532,109.483 -148.167,157 -22.018,19.878 -41.503,42.795 -55.333,69 -3.573,6.768 -9.094,14.528 -10.667,22 -4.428,-1.432 -4.415,-10.592 -5.333,-15 -3.525,-16.918 -4.579,-33.788 -2.667,-51 4.311,-38.797 47.247,-67.276 80,-81.833 12.165,-5.407 30.329,-5.786 39.667,-16.334 8.426,-9.518 -0.373,-21.069 -10.667,-23.5 -5.085,-1.2 -9.937,1.534 -15,1.667 2.674,-7.537 18.007,-14.257 24,-20 14.564,-13.958 23.792,-29.907 31.833,-48 14.674,-33.015 12.396,-74.752 3.834,-109 -2.924,-11.694 -16.418,-48.991 -33.334,-29 -6.496,7.678 -2.537,18.329 -1.333,27 3.22,23.181 12.344,43.89 10,68 -1.805,18.563 -6.773,37.867 -18.333,53 -17.187,22.498 -42.269,36.346 -64.667,52.833 -10.348,7.618 -21.344,15.579 -30,25.167 -2.245,2.487 -7.212,11.437 -11,10.833 -6.22,-0.991 -14.706,-14.088 -11.833,-19.833 7.361,-14.723 22.328,-25.758 30.833,-40 15.715,-26.314 26,-57.219 26,-88 0,-12.678 1.933,-45.509 -16,-48 -9.168,-1.273 -16.138,6.139 -17,15 -1.217,12.52 3.202,24.634 2,37 -2.152,22.134 -7.248,43.162 -17.167,63 -4.573,9.147 -11.047,17.366 -17.833,25 -1.766,1.987 -6.265,9.205 -9.5,4.833 -3.04,-4.108 -3.026,-12.953 -3.5,-17.833 -1.098,-11.296 -3.594,-25.659 -8.333,-36 -5.399,-11.778 -19.253,-11.449 -24.5,0 -4.808,10.488 -1.879,25.296 0.5,36 3.742,16.838 7.858,33.745 16.333,49 9.163,16.493 22.605,31.074 30.833,48 2.912,5.989 -5.01,27.22 -11.833,28 -1.247,-5.922 -5.269,-11.57 -7.833,-17 -7.622,-16.141 -16.212,-31.859 -23.834,-48 -18.824,-39.863 -34.333,-79.319 -34.333,-124 0,-23.455 4.265,-52.029 15.333,-73 4.464,-8.458 15.699,-26.248 9.334,-36 -14.051,-21.524 -33.401,13.931 -38.167,25 -16.901,39.255 -22.958,84.802 -14.167,127 13.059,62.681 50.609,115.511 74.167,174 10.559,26.214 21.5,56.271 21.5,85 h -1 c -9.47,-13.329 -14.189,-30.378 -21.5,-45 -12.018,-24.035 -27.108,-48.227 -42.833,-70 -14.543,-20.136 -30.048,-38.591 -46.667,-57 -14.35,-15.896 -31.689,-30.779 -41.833,-50 -16.641,-31.529 -18.227,-76.408 -11.5,-111 2.267,-11.66 3.012,-23.56 6.666,-35 3.469,-10.859 12.676,-22.317 13,-34 0.268,-9.621 -11.346,-17.413 -20.333,-14.667 -13.267,4.054 -15.905,23.446 -19.333,34.667 -7.661,25.072 -13.667,50.592 -13.667,77 0,14.22 7.624,34.643 2,48 -18.328,-9.164 -36.566,-24.341 -53,-36.667 -18.076,-13.557 -40.289,-30.366 -62,-37 -13.889,-4.244 -28.289,9.162 -17,21.667 9.16,10.146 22.301,15.501 34,22 10.401,5.778 20.055,13.37 30,20 34.439,22.959 65.387,49.363 96,77 11.935,10.774 33.048,27.317 38,43 -13.629,-1.076 -27.205,-9.315 -41,-4.333 -7.179,2.592 -13.471,11.974 -8.667,19.333 10.029,15.364 37.126,13.369 52.667,18.333 25.689,8.206 45.195,30.706 60.333,51.667 6.179,8.556 13.729,19.48 15.667,30 -5.752,-0.454 -10.794,-4.52 -16,-6.833 -8.754,-3.891 -18.641,-7.234 -28,-9.834 -26.236,-7.287 -54.311,-13.91 -77,-29.666 -19.31,-13.41 -33.813,-37.419 -42.667,-58.667 -5.954,-14.291 -12.819,-31.423 -14.333,-47 -1.031,-10.601 0.214,-22.782 -3.333,-33 -2.439,-7.023 -10.09,-12.982 -17.667,-10.667 -10.221,3.123 -12,15.562 -12,24.667 0,14.984 2.955,31.671 7.333,46 1.959,6.41 5.489,13.221 5.667,20 -8.042,-0.846 -17.046,-15.85 -22,-22 -14.585,-18.106 -27.589,-38.417 -38.167,-59 -4.695,-9.137 -9.153,-25.993 -18.833,-30.833 -8.057,-4.029 -18.263,4.621 -18.833,12.833 -0.854,12.292 8.779,27.559 14,38 21.42,42.84 56.229,86.417 94.833,114.833 11.537,8.493 24.017,15.678 36,23.5 4.631,3.023 10.839,4.539 11,10.667 -14.656,2.7 -21.227,21.964 -5,28.5 9.853,3.969 20.418,-2.17 30,-4.167 7.895,-1.644 18.958,-1.115 27,-0.333 66.245,6.44 134.08,52.03 136,125 -6.786,-0.714 -13.928,-10.492 -19,-15 -12.122,-10.775 -26.605,-19.636 -41,-26.833 -62.397,-31.199 -137.246,-40.306 -187.667,-93.334 -19.91,-20.94 -37.193,-44.041 -52,-68.833 -6.243,-10.454 -8.966,-24.202 -19.333,-31.833 -15.776,-11.613 -21,10.137 -21,20.833 l -46.999997,-2 -35,4 c 3.908,-49.501 21.423,-99.846 43.5,-144 23.206997,-46.413 54.755997,-91.023 93.499997,-126 47.303,-42.704 103.675,-79.928295 165,-98.666695 60.414,-18.4599 123.775,-26.4803 187,-20.3333 139.115,13.5253 266.597,96.883995 338.333,216.999995 21.544,36.072 38.35,75.127 48,116 3.774,15.985 9.232,32.458 9.667,49 m -747,93 c -8.345,2.416 -17.413,0.165 -26,1 -23.356,2.271 -48.084,6.977 -69.999997,15.5 -5.2623,2.046 -10.9822,3.878 -14.6667,8.5 -7.1086,8.918 -1.7983,20.614 8.6667,23.667 5.3414,1.558 11.17,-1.455 15.999997,-3.334 9.878,-3.841 20.615,-6.836 31,-9 27.617,-5.753 66.738,-8.082 93,3.667 -4.709,7.491 -22.882,7.559 -31,11.167 -20.426,9.078 -49.552,31.193 -57.667,52.833 -4.322,11.525 3.312,25.75 16.667,20 9.505,-4.092 16.303,-13.582 23,-21 9.067,-10.043 19.375,-18.74 32,-24 39.198,-16.333 86.477,-8.314 125,6.667 14.964,5.819 30.703,9.787 45,17.333 11.102,5.859 22.147,11.185 33,17.667 4.793,2.862 10.394,5.258 13,10.333 -9.113,-1.679 -17.657,-6.092 -27,-7 -15.435,-1.501 -32.06,-0.194 -47,3.333 -27.418,6.474 -50.673,24.192 -77,33.334 -23.193,8.053 -47.637,12.075 -72,7 -12.16,-2.534 -24.425,-4.683 -36,-9.667 -9.494,-4.088 -17.928,-10.729 -28,-13.667 -8.227,-2.399 -15.304,2.935 -17.667,10.667 -4.056,13.276 16.205,24.093 25.667,28.167 32.539,14.009 65.9,19.245 101,15.833 23.719,-2.306 47.127,-10.694 68,-22 14.959,-8.103 31.572,-19.306 49,-21 26.843,-2.61 57.77,0.352 80,17.333 29.833,22.79 31,60.561 31,94.667 0,12.356 1.182,25.925 -1.333,38 -2.945,14.136 -8.507,28.01 -16.667,40 -6.341,9.318 -14.937,18.162 -24,24.833 -66.135,48.683 -144.706,0.621 -202,-39.166 -92.756,-64.414 -154.023097,-167.978 -176.666697,-276.667 -7.7395,-37.15 -7.3333,-74.218 -7.3333,-112 6.1653,0.162 11.605,2.622 18,2 13.7523,-1.337 28.0111,-7.36 41.999997,-6 27.242,2.649 47.583,15.464 64.333,37 5.123,6.586 15.775,15.529 16.667,24 m 751,-47 v 31 c 0,3.168 1.318,10.156 -0.5,12.833 -1.64,2.415 -7.821,3.311 -10.5,4.167 -9.99,3.191 -29.051,9.189 -39,5 v -1 c 20.25,-14.388 34.885,-31.234 48,-52 h 2 m -4,79 c -0.838,31.837 -13.73,64.19 -23.667,94 -30.758,92.274 -102.685,174.159 -185.333,224.667 -21.588,13.192 -45.255,27.157 -70,33 -52.602,12.42 -107.815,-21.111 -124.667,-71.667 -8.156,-24.469 -5.333,-52.42 -5.333,-78 0,-18.449 0.14,-40.195 5.333,-58 3.639,-12.474 11.631,-23.837 20.667,-33 8.208,-8.323 18.056,-15.381 29,-19.333 8.773,-3.168 17.487,-6.742 27,-7.667 57.109,-5.552 104.528,33.224 151,60.333 21.473,12.526 45.929,24.881 71,27.667 9.155,1.017 17.156,5.724 25,-2 2.304,-2.269 3.568,-4.938 4.333,-8 4.095,-16.377 -13.734,-17.458 -24.333,-19.667 -3.501,-0.729 -8.602,-0.774 -10,-4.333 11.005,0 29.187,1.315 39,-4 5.639,-3.055 11.095,-10.327 8.5,-17 -3.311,-8.513 -10.868,-11.839 -19.5,-11 -28.327,2.754 -54.666,2.755 -83,0 -39.541,-3.844 -69.5,-36.729 -107,-47.667 -31.354,-9.145 -67.993,-6.836 -98,5.667 -10.387,4.328 -17.825,13.984 -28,18 0.151,-5.75 4.567,-10.35 7.667,-15 7.347,-11.021 14.949,-21.616 24.333,-31 13.234,-13.234 33.499,-29.951 52,-34.833 12.012,-3.17 26.84,-1.349 39,-0.167 25.894,2.517 55.25,9.229 77,24.333 8.105,5.629 14.719,13.094 22,19.667 6.531,5.896 34.164,29.052 35.5,5 0.947,-17.045 -24.828,-40.997 -38.5,-47.833 -5.836,-2.919 -22.845,-9.29 -25,-15.167 36.829,0 73.424,13.444 110,17 16.169,1.572 33.637,3.591 50,2 14.463,-1.406 29.527,-6 44,-6 z"
       id="path359" />
    <path
       style="fill:#b5975b;fill-opacity:1;stroke-width:1.27357"
       d="M 468.03802,977.26097 C 383.56538,970.38307 313.66618,948.19013 242.95121,905.79613 186.49281,871.94899 133.37537,822.35426 99.171116,771.55139 85.645436,751.46197 66.415147,718.54158 57.274406,699.82827 37.389297,659.11866 18.182316,593.49611 14.034194,552.09382 11.710912,528.90521 11.02244,485.07669 12.623794,462.30694 20.074904,356.35918 53.380392,267.6226 114.67891,190.39914 129.60036,171.6012 169.13659,131.34671 187.21521,116.54505 234.44162,77.878978 283.24977,51.03536 341.31752,31.791502 383.7156,17.74063 412.84541,11.477709 444.47692,9.6121841 c 7.35488,-0.4337673 20.55126,-1.6664875 29.3253,-2.7393781 14.42209,-1.7635376 18.21032,-1.7561882 39.48076,0.076595 48.73513,4.1993 77.2663,8.225145 100.19299,14.137571 50.77915,13.095124 114.18678,42.563549 159.42404,74.091634 45.00501,31.366204 90.15175,76.513674 123.23719,123.239134 25.79688,36.43209 39.79531,63.52346 55.27794,106.98012 15.14185,42.50022 19.7926,62.3645 26.98503,115.25834 3.79976,27.94378 4.07482,81.35195 0.54114,105.06976 -6.6065,44.34241 -20.34929,95.01498 -36.78535,135.63551 -38.58991,95.37203 -108.57025,173.77427 -203.9929,228.54272 -63.31897,36.34233 -141.28755,61.31513 -208.74453,66.85944 -14.92869,1.22698 -49.02597,1.50326 -61.38051,0.49734 z m -67.5507,-66.80558 c 19.83914,-4.99812 41.14688,-18.58844 54.22862,-34.58763 7.31769,-8.94967 17.86583,-29.57433 20.9896,-41.04077 4.40982,-16.18712 3.61688,-72.52834 -1.3359,-94.9206 -6.50089,-29.39145 -25.09981,-49.40807 -54.17639,-58.30599 -19.589,-5.99455 -48.65037,-6.57663 -65.97198,-1.32136 -4.64543,1.4094 -17.3936,7.40051 -28.32926,13.31357 -38.03926,20.56834 -55.89696,25.88615 -90.32249,26.89691 -17.36402,0.50983 -25.41055,0.17238 -36.18772,-1.51758 -39.62195,-6.21311 -75.84523,-24.19229 -75.84523,-37.64527 0,-5.76609 3.11883,-10.80406 8.1732,-13.20253 5.81771,-2.76067 8.3445,-2.0775 26.21326,7.08732 22.73208,11.65919 55.97177,18.94 77.62768,17.00353 24.96568,-2.23242 39.3628,-6.87148 75.20106,-24.23144 29.72839,-14.40036 42.30835,-18.67876 61.82715,-21.02726 15.70735,-1.88989 28.41051,-0.86524 42.93597,3.46329 11.43377,3.40722 14.09523,3.30981 11.0138,-0.40308 -2.49114,-3.00165 -8.55818,-6.66434 -30.04811,-18.14022 -18.16381,-9.69968 -35.83835,-16.92955 -68.66739,-28.0888 -29.77525,-10.12121 -56.75801,-14.02968 -80.48223,-11.65793 -31.8079,3.1799 -50.83977,12.65784 -70.77733,35.24734 -10.21398,11.57259 -14.40143,15.20458 -20.43784,17.72675 -8.91127,3.72336 -16.02278,-1.51971 -16.02278,-11.81303 0,-8.0773 6.29958,-19.18132 17.17479,-30.27335 16.92291,-17.26026 35.04772,-28.19576 53.94323,-32.54635 7.40018,-1.70385 13.08476,-3.8015 15.17548,-5.59986 l 3.34298,-2.87552 -2.72004,-1.45571 c -1.49602,-0.80065 -7.4798,-2.57409 -13.29731,-3.94097 -29.40931,-6.91005 -69.43573,-3.50801 -105.81235,8.99353 -17.25231,5.9291 -20.43998,5.82058 -26.337751,-0.89662 -5.219284,-5.94442 -5.224133,-11.61248 -0.01502,-17.54535 9.299066,-10.59104 62.436701,-23.71197 96.029641,-23.71197 15.02555,0 15.68212,-0.4974 11.2305,-8.50769 -3.46203,-6.22963 -25.11875,-30.37996 -32.51789,-36.26209 -20.35064,-16.17828 -46.02093,-21.4548 -73.507041,-15.10935 -9.755305,2.25211 -14.166916,2.63251 -22.774784,1.96382 l -10.675844,-0.82932 0.713623,37.96893 c 0.929992,49.48105 3.506193,68.15576 15.024564,108.91204 13.218386,46.77157 33.083825,89.8395 60.387102,130.91818 17.56021,26.41991 32.00289,44.15947 53.45247,65.6542 22.06887,22.11532 38.88131,35.65666 70.07412,56.44017 45.56779,30.36146 81.11942,45.5621 114.62155,49.00819 9.17056,0.9433 26.54564,-0.536 36.88228,-3.14013 z m 261.40854,-5.01914 c 19.902,-5.08192 46.41475,-18.35745 78.013,-39.06282 29.1544,-19.104 50.80151,-36.83929 76.00297,-62.26858 38.23594,-38.58163 69.00728,-83.22805 88.12789,-127.86555 8.79151,-20.52397 26.11681,-72.87691 29.91494,-90.3958 1.74642,-8.05534 3.55689,-18.51456 4.02328,-23.2427 l 0.84798,-8.59662 h -6.00935 c -3.30515,0 -12.66378,1.1041 -20.79694,2.45355 -23.38355,3.87979 -28.9557,4.18648 -48.5629,2.67286 -21.91961,-1.69212 -36.59609,-3.87372 -65.10792,-9.67804 -39.13445,-7.96684 -64.77086,-11.06406 -64.77086,-7.82521 0,2.36792 6.67463,6.71074 20.63998,13.42931 8.64363,4.15834 13.58259,7.70814 22.4024,16.10132 13.4572,12.80629 19.36269,22.55288 19.36269,31.95676 0,17.59912 -14.1209,13.60335 -40.79401,-11.54345 -15.34417,-14.4661 -27.10424,-21.50099 -46.44573,-27.78384 -14.88693,-4.83585 -24.68887,-6.8312 -45.28858,-9.21931 -21.45859,-2.48767 -35.76525,-1.88963 -45.94936,1.92073 -11.76497,4.40185 -30.00675,17.37012 -43.87727,31.19282 -16.69216,16.6346 -37.30787,45.85459 -34.40211,48.76034 0.75833,0.75832 8.26441,-3.7438 19.43928,-11.65961 15.93394,-11.28694 36.39209,-16.41708 66.02224,-16.5559 33.29845,-0.15603 45.40452,3.67831 87.46484,27.70247 43.85224,25.04771 53.87391,27.2735 116.84565,25.95125 38.48078,-0.808 40.27115,-0.5353 44.01465,6.70382 2.98202,5.76659 2.37875,9.7801 -2.22516,14.80384 -5.21569,5.6913 -14.49484,8.11408 -31.18457,8.14227 -10.45022,0.0177 -14.01194,1.03763 -10.72245,3.07064 0.58195,0.35967 6.4057,1.82109 12.94168,3.24758 6.53597,1.4265 13.24978,3.48878 14.91956,4.58287 6.84919,4.48777 6.95418,14.18085 0.22645,20.90857 -4.60099,4.60101 -8.09421,4.85438 -25.6429,1.86006 -26.57017,-4.53368 -46.90532,-13.73881 -92.65299,-41.94138 -59.61436,-36.7511 -82.05871,-45.61311 -115.89512,-45.76044 -15.62639,-0.068 -18.17977,0.25556 -28.01861,3.55083 -5.95395,1.99412 -14.299,5.31486 -18.54454,7.3794 -21.38479,10.3991 -39.52358,33.3929 -44.56583,56.49427 -2.71093,12.42033 -4.8659,81.61208 -3.15339,101.24904 2.74996,31.53323 13.13713,53.33925 35.00703,73.491 27.11705,24.98669 63.82249,34.60142 98.39408,25.77365 z M 475.04267,644.53989 c 0,-7.3097 -3.15551,-22.44691 -6.71262,-32.20105 -10.82098,-29.67265 -37.8437,-57.29733 -71.37793,-72.96797 -31.30066,-14.62687 -70.88686,-20.38676 -93.3423,-13.5815 -15.47265,4.68907 -25.04411,3.05127 -29.20635,-4.99762 -1.59486,-3.08414 -1.7235,-4.72994 -0.6289,-8.0466 1.55797,-4.72069 6.91657,-10.24676 11.18735,-11.53698 6.17753,-1.86625 2.31849,-5.82772 -18.02123,-18.4995 -25.7149,-16.02056 -35.63007,-23.62165 -54.02426,-41.41568 -28.53699,-27.6059 -49.48246,-56.12501 -68.74883,-93.60761 -11.95849,-23.26517 -14.38897,-31.68935 -11.12638,-38.56474 4.37311,-9.21565 13.26923,-11.61843 19.81117,-5.35086 2.08455,1.99711 8.33095,12.8384 13.88093,24.09176 11.35583,23.02561 22.55203,40.75923 40.29834,63.82845 19.60107,25.48032 26.48999,28.0516 19.19209,7.16342 -6.28275,-17.98263 -8.83523,-31.83252 -8.96066,-48.62088 -0.1348,-18.04606 1.57285,-23.07298 9.13505,-26.89116 5.27314,-2.66243 9.5663,-1.75942 14.20832,2.98855 4.55217,4.65607 6.07072,10.95902 7.13952,29.63369 1.2284,21.46315 7.7743,43.10822 21.03161,69.54431 19.95407,39.78997 42.32599,55.76873 100.55853,71.82227 20.78443,5.72984 36.46835,11.19184 46.1307,16.06521 4.0077,2.02133 8.44695,3.67517 9.865,3.67517 2.56714,0 2.56783,-0.0275 0.16115,-6.36137 -7.62956,-20.07935 -36.12193,-54.54614 -55.11797,-66.67534 -10.64866,-6.79932 -18.84443,-9.61907 -37.43072,-12.87808 -19.44,-3.40869 -26.37115,-6.1366 -32.0627,-12.61899 -4.79557,-5.46192 -5.0577,-7.56096 -1.64352,-13.1604 5.2151,-8.55306 15.68455,-10.26271 34.08173,-5.56549 5.68286,1.45097 11.53614,2.63812 13.00728,2.63812 2.65398,0 2.65038,-0.0482 -0.46202,-6.1902 -4.36887,-8.62156 -13.21325,-17.92175 -38.29721,-40.2709 -51.04637,-45.48098 -97.0399,-80.08151 -131.234,-98.72621 -18.38517,-10.02471 -29.87296,-20.17356 -29.87296,-26.39115 0,-5.0566 5.89545,-11.20501 11.80749,-12.31411 7.13947,-1.33938 22.30461,4.84631 40.825,16.65208 5.02468,3.20297 21.17532,14.86557 35.89028,25.9169 26.29048,19.74482 46.02114,32.67565 47.54039,31.15642 1.81862,-1.81863 1.60527,-19.61824 -0.40075,-33.43502 -2.42077,-16.67344 -2.01318,-27.36642 1.92943,-50.61767 2.53736,-14.96397 13.95105,-56.79474 17.31952,-63.47546 6.86151,-13.60853 19.16212,-16.0226 28.01749,-5.4986 2.85017,3.38724 3.20616,4.74795 2.59413,9.91553 -0.39015,3.29425 -2.47021,9.47775 -4.62234,13.7411 -7.00044,13.86778 -9.01909,20.51926 -13.1348,43.27932 -3.70605,20.49461 -4.0554,24.70694 -4.07717,49.1603 -0.0261,29.38101 1.39109,39.29837 8.3472,58.41094 6.55693,18.01575 12.926,27.02545 37.48524,53.02669 49.99569,52.93119 85.89769,105.05307 108.04797,156.86212 3.69343,8.63884 8.39862,18.28598 10.45598,21.43807 l 3.74066,5.73108 0.4186,-7.00465 c 0.89796,-15.02618 -5.92856,-42.66957 -18.32153,-74.19141 -3.92308,-9.97844 -18.49265,-41.35348 -32.37683,-69.72232 -31.19123,-63.73144 -37.92675,-80.79425 -44.74395,-113.34798 -3.67936,-17.56979 -4.01022,-51.74811 -0.67807,-70.04651 7.96351,-43.73157 25.22012,-79.90749 39.8715,-83.58476 4.85893,-1.21951 9.2561,0.60363 12.00096,4.97582 3.86541,6.15706 2.45309,13.03088 -6.33854,30.84996 -11.57189,23.45426 -16.07614,40.94506 -17.5354,68.09319 -1.94066,36.10439 6.24453,72.05522 27.26637,119.7588 5.99041,13.5937 37.86786,78.5868 39.29737,80.12116 0.94857,1.01814 5.9015,-4.40909 8.28411,-9.0774 1.32883,-2.60361 3.02405,-7.56884 3.76717,-11.03384 1.69273,-7.89295 0.6654,-10.06718 -17.22211,-36.44882 -18.01667,-26.57214 -22.40457,-36.65313 -29.262,-67.22825 -6.59557,-29.4075 -2.67544,-45.48294 11.09139,-45.48294 9.04771,0 14.95098,12.28518 18.33936,38.16576 3.68884,28.17556 4.96595,29.75112 15.20167,18.75441 16.71163,-17.95412 26.53243,-39.13633 32.47519,-70.04488 2.38613,-12.41037 2.61571,-16.48418 1.77244,-31.45034 -1.55567,-27.60984 -0.64802,-32.3427 6.95674,-36.27527 12.1875,-6.3024 20.72548,2.94772 23.10865,25.03615 3.0678,28.43398 -2.80462,61.33419 -15.99377,89.60497 -7.13965,15.30375 -12.43118,23.35982 -24.23884,36.90227 -16.90514,19.38887 -18.59585,23.5554 -13.56215,33.42227 3.03694,5.95288 8.15544,9.69679 11.71321,8.5676 1.38603,-0.43991 4.77537,-3.76561 7.53186,-7.39044 7.2809,-9.57449 20.40601,-20.21067 52.87384,-42.84729 42.66064,-29.74307 55.14762,-46.66577 61.21693,-82.96287 2.74408,-16.4108 2.03089,-26.37314 -3.7841,-52.8589 -6.42481,-29.2633 -7.97695,-41.21193 -5.97982,-46.03342 2.0282,-4.89652 6.16766,-8.793 10.47692,-9.86198 7.34109,-1.82106 17.31296,12.23721 23.27596,32.81427 7.77053,26.81448 9.32008,66.34155 3.50675,89.45303 -7.78165,30.93683 -27.38258,61.03383 -49.44402,75.92074 -8.14821,5.49836 -13.16037,10.32856 -13.16037,12.68261 0,0.43827 3.17352,0.2501 7.05227,-0.41817 8.56014,-1.4748 12.94006,0.0134 18.42504,6.26046 4.30247,4.90025 4.73232,8.04119 1.7836,13.03298 -3.32727,5.63264 -9.81412,9.10769 -26.29931,14.08878 -42.47275,12.83334 -79.94962,42.50335 -91.53442,72.46675 -5.37667,13.90642 -4.34904,61.01794 1.67782,76.91848 1.60614,4.23745 4.29648,4.56167 5.28414,0.63678 0.39659,-1.57604 4.82409,-10.02938 9.83886,-18.7852 20.84249,-36.39102 34.54297,-51.32843 94.78595,-103.34356 52.83594,-45.61972 74.89395,-68.76184 95.4626,-100.15434 16.42047,-25.06144 25.94994,-48.81518 29.89582,-74.52022 3.43465,-22.37462 4.66441,-26.14706 10.39006,-31.87273 4.083,-4.08299 5.55197,-4.81455 8.28849,-4.12772 16.93507,4.25043 17.65876,22.76705 2.67007,68.31625 -6.74302,20.49137 -11.28152,29.80703 -22.07066,45.30183 -8.33514,11.97048 -13.12157,21.04337 -13.17079,24.96583 -0.0397,3.17053 4.71771,2.88434 27.35385,-1.64544 23.99504,-4.80171 36.18325,-5.80638 48.01852,-3.95816 5.11073,0.7981 15.6765,2.03196 23.47945,2.74189 14.19143,1.29118 46.95252,8.89962 61.4048,14.26066 3.95464,1.46697 9.5802,4.29816 12.50127,6.29154 9.11179,6.21806 10.48555,17.45276 3.00987,24.61493 -3.46712,3.32171 -4.29645,3.53623 -11.12791,2.87835 -4.75995,-0.4584 -14.16637,-3.43261 -26.48517,-8.37434 -26.27445,-10.5401 -35.70289,-12.2347 -68.13614,-12.24633 -22.23443,-0.008 -28.28136,0.42749 -40.75433,2.93486 -37.78049,7.59481 -76.118,25.02635 -98.3835,44.73366 -3.32721,2.94492 -6.04948,6.24427 -6.04948,7.33188 0,2.10227 -0.0214,2.10314 22.28753,-0.9075 13.82698,-1.86599 48.07776,-1.51131 62.39176,0.64609 22.97002,3.46201 48.12763,11.43524 58.43216,18.51896 9.66091,6.64127 12.11236,16.64191 5.47822,22.34836 -4.89858,4.21359 -10.38619,3.93427 -27.75441,-1.41272 -58.48042,-18.00378 -116.6985,-15.28943 -163.49995,7.62303 -39.52166,19.3485 -56.5761,40.55173 -77.50768,96.36271 -8.68522,23.15786 -11.51608,33.23172 -10.76016,38.29093 0.42048,2.81426 0.5882,2.76002 4.87091,-1.57562 2.43948,-2.46962 6.72785,-7.76411 9.52971,-11.76552 5.40437,-7.71813 23.80346,-24.74322 39.93993,-36.95729 19.47437,-14.7406 56.92844,-30.74991 85.61834,-36.59654 27.27719,-5.55873 73.55351,-5.56683 99.86412,-0.0174 6.30419,1.32966 18.626,3.95166 27.38182,5.82668 19.6668,4.21154 34.66543,3.81444 53.49006,-1.41621 22.18797,-6.1652 37.34704,-14.79042 52.29434,-29.75452 10.47694,-10.48871 15.3309,-17.58853 21.50462,-31.45446 6.32564,-14.20717 11.28812,-21.11329 17.18032,-23.90932 l 4.76257,-2.25999 -0.89443,-7.84696 c -0.97386,-8.54373 -10.22421,-47.18628 -15.4452,-64.52097 -4.9584,-16.46286 -16.37733,-44.63567 -25.35973,-62.56752 C 874.18354,248.18869 849.09466,213.44531 812.60725,176.96018 740.04982,104.40732 653.99719,61.541085 552.73061,47.505292 532.71546,44.731145 470.02945,44.338754 449.57121,46.859556 416.44767,50.940936 379.57753,58.791367 351.65753,67.707446 291.58954,86.88978 228.861,126.32933 177.20878,177.38925 121.66307,232.29803 76.733473,314.03484 58.747034,392.89722 c -2.974163,13.04035 -7.28059,42.33918 -6.358649,43.26112 0.336489,0.33649 7.742588,-0.28769 16.458003,-1.38704 12.262805,-1.54682 21.508747,-1.80307 40.886612,-1.13316 l 25.0404,0.86566 1.52505,-7.43078 c 2.86871,-13.97784 8.01795,-18.72404 16.1351,-14.87221 5.65713,2.68449 10.7384,9.57423 17.00446,23.05655 10.17864,21.90074 37.36962,59.03921 59.43343,81.17642 26.11283,26.19972 51.03646,39.76558 118.17716,64.32351 68.05014,24.89056 89.58468,36.15237 114.8416,60.05813 10.78562,10.20861 13.15247,10.87886 13.15247,3.72447 z M 922.699,525.98675 c 8.14754,-2.10076 15.92322,-4.41335 17.2793,-5.13911 2.29453,-1.22799 2.4656,-2.86924 2.4656,-23.65564 0,-18.19871 -0.32124,-22.25983 -1.73424,-21.92432 -0.95383,0.22647 -6.05102,6.14285 -11.32708,13.1475 -9.19681,12.20995 -22.73629,26.2465 -33.30812,34.53094 -2.98621,2.3401 -4.61243,4.49323 -4.06396,5.38068 1.63635,2.64767 15.42066,1.59659 30.6885,-2.34005 z"
       id="path1107" />
  </g>
</svg>
