<?xml version="1.0" encoding="UTF-8" standalone="no"?>
<!-- Created with Inkscape (http://www.inkscape.org/) -->

<svg
   version="1.1"
   id="svg48"
   width="1000"
   height="1000"
   viewBox="0 0 1000 1000"
   xmlns="http://www.w3.org/2000/svg"
   xmlns:svg="http://www.w3.org/2000/svg">
  <defs
     id="defs52" />
  <g
     id="g54">
    <path
       style="fill:#000000;stroke-width:0.666667"
       d="m 213.2122,938.61642 c -11.97828,-3.5222 -20.43052,-12.4207 -22.91642,-24.1265 -4.1959,-19.7581 10.97614,-38.1339 31.48539,-38.1339 5.87747,0 10.78101,1.1444 15.80568,3.6888 3.4499,1.7469 11.29202,9.756 11.29202,11.5324 0,1.0766 -9.14663,8.1122 -10.54625,8.1122 -0.31016,0 -1.52165,-1.1918 -2.6922,-2.6484 -1.17055,-1.4566 -3.53722,-3.474 -5.25926,-4.4832 -2.66147,-1.5598 -3.89034,-1.8374 -8.19472,-1.8516 -8.3324,-0.027 -13.18778,3.3598 -16.05338,11.1997 -1.59933,4.3756 -1.58749,7.8904 0.0416,12.3474 2.86518,7.8388 7.4705,11.015 15.97108,11.015 4.4487,0 5.641,-0.2603 8.28166,-1.8078 1.69662,-0.9943 4.04248,-2.9995 5.21303,-4.4561 1.17055,-1.4566 2.40403,-2.6484 2.74108,-2.6484 0.33704,0 2.83683,1.5375 5.55509,3.4166 3.20554,2.216 4.94228,3.8607 4.94228,4.6804 0,0.695 -2.025,3.2976 -4.5,5.7834 -4.66497,4.6853 -9.44189,7.4977 -14.83333,8.733 -4.25605,0.9752 -12.41612,0.7988 -16.33333,-0.353 z m 81.45891,0.072 c -10.46056,-2.8756 -18.05973,-9.7869 -22.35599,-20.3324 -0.6406,-1.5724 -0.95061,-4.9423 -0.95061,-10.3333 0,-5.391 0.31001,-8.7609 0.95061,-10.3333 1.92706,-4.7301 3.91508,-7.9123 7.16396,-11.4671 11.83436,-12.9487 33.80194,-13.2454 46.65013,-0.6301 6.00417,5.8953 9.41633,14.0234 9.41633,22.4305 0,17.7277 -14.54505,31.8206 -32.621,31.6071 -2.77512,-0.033 -6.48916,-0.4564 -8.25343,-0.9414 z m 16.70558,-15.0914 c 3.08581,-1.7332 5.10043,-3.8602 6.93142,-7.3181 2.22863,-4.2089 2.2135,-12.3312 -0.0309,-16.5729 -3.3335,-6.3001 -7.64266,-8.9266 -14.73172,-8.9794 -5.6513,-0.042 -8.56665,0.923 -11.90261,3.9404 -3.91389,3.54 -5.05403,6.553 -5.05403,13.3557 0,8.0064 1.78771,11.5054 7.84736,15.3594 3.98432,2.534 12.61644,2.6435 16.94044,0.2149 z m 373.83551,15.0178 c -11.25773,-3.3158 -18.81806,-10.7154 -22.35257,-21.8776 -0.45609,-1.4403 -0.82925,-5.3618 -0.82925,-8.7145 0,-10.7033 3.82256,-18.6515 12.18356,-25.3333 8.91066,-7.121 24.03333,-8.3829 35.04673,-2.9244 4.47827,2.2196 11.6182,9.6048 11.6182,12.0174 0,0.8029 -9.26387,7.907 -10.3108,7.907 -0.1806,0 -1.9096,-1.5873 -3.84213,-3.5274 -4.74027,-4.7586 -6.37854,-5.476 -12.4602,-5.456 -5.5892,0.019 -8.3684,0.9993 -11.8002,4.1647 -2.9436,2.7151 -5.58667,8.9374 -5.58667,13.152 0,4.4847 3.15487,11.4478 6.23173,13.7541 3.93847,2.952 5.33327,3.3977 10.81487,3.456 4.6728,0.05 5.775,-0.1742 8.3856,-1.7041 1.65313,-0.9688 4.07287,-2.979 5.37727,-4.4671 1.3044,-1.488 2.58186,-2.7056 2.8388,-2.7056 1.19033,0 10.35173,6.9506 10.35173,7.8537 0,0.5613 -0.8096,2.0988 -1.79907,3.4167 -1.6852,2.2447 -2.52713,3.0982 -5.8676,5.9479 -2.01653,1.7203 -8.29006,4.6215 -11.66666,5.3951 -4.25854,0.9757 -12.41787,0.7986 -16.33334,-0.3546 z m 81.46087,0.074 c -9.33367,-2.5659 -16.9594,-8.9478 -21.00673,-17.5802 -2.2954,-4.8958 -2.3854,-5.3727 -2.40607,-12.7526 -0.0187,-6.5637 0.20833,-8.2422 1.57607,-11.6667 5.03866,-12.6162 16.58026,-20.3333 30.41,-20.3333 15.1428,0 26.79066,8.8774 31.552,24.0473 0.41093,1.3093 0.7472,4.7381 0.7472,7.6193 0,14.5307 -9.65694,26.8748 -24,30.6785 -4.47087,1.1857 -12.5362,1.1797 -16.87247,-0.013 z m 16.8556,-15.16 c 5.93107,-3.2879 8.28393,-7.7092 8.25173,-15.5062 -0.0253,-6.0954 -1.09746,-9.1378 -4.42993,-12.5694 -3.56933,-3.6754 -6.1248,-4.6626 -12.13827,-4.6892 -5.6836,-0.025 -7.65326,0.6506 -11.616,3.985 -3.69046,3.1053 -4.93973,6.4622 -4.93973,13.2736 0,8.0693 1.75567,11.5268 7.80887,15.3785 3.94286,2.5088 12.65033,2.574 17.06333,0.1277 z m -422.85081,14.404 c -0.25611,-0.2562 -0.46566,-13.7057 -0.46566,-29.888 0,-21.995 0.20195,-29.6241 0.8,-30.2222 0.58516,-0.5851 5.95274,-0.8 19.9873,-0.8 h 19.1873 l 0.37704,1.5023 c 0.20737,0.8262 0.28808,3.9012 0.17936,6.8333 l -0.19766,5.3311 -12.33334,0.3333 -12.33333,0.3333 v 6 6 l 9.82509,0.1845 c 11.43617,0.2147 10.70149,-0.3863 10.37258,8.4845 l -0.19767,5.331 -10.14939,0.184 -10.1494,0.1839 -0.18394,10.1494 -0.18394,10.1494 -7.03434,0.1879 c -3.86889,0.1033 -7.24389,-0.022 -7.5,-0.2778 z m 64.66666,0 c -0.2561,-0.2562 -0.46565,-13.7057 -0.46565,-29.888 0,-21.9951 0.20195,-29.6241 0.8,-30.2222 0.58516,-0.5851 5.95273,-0.8 19.9873,-0.8 h 19.1873 l 0.37703,1.5023 c 0.20738,0.8262 0.28809,3.9012 0.17937,6.8333 l -0.19767,5.3311 -12.33333,0.3333 -12.33333,0.3333 v 6 6 l 10,0.3334 10,0.3333 v 6.6667 6.6666 l -10.1494,0.184 -10.1494,0.1839 -0.18393,10.1494 -0.18394,10.1494 -7.03435,0.1879 c -3.86888,0.1033 -7.24388,-0.022 -7.5,-0.2778 z m 65.02762,-30.0674 0.1734,-30.5094 20.15152,-0.1764 20.15151,-0.1765 0.37949,1.512 c 0.20872,0.8316 0.29053,3.911 0.18181,6.8431 l -0.19767,5.3311 -13,0.3333 -13,0.3333 v 4.3334 4.3333 l 9.16667,0.1855 9.16667,0.1854 v 6.2958 6.2957 l -9.16667,0.1855 -9.16667,0.1854 v 5.6667 5.6667 l 13.66667,0.3333 13.66667,0.3333 v 6.3334 6.3333 l -21.1734,0.1761 -21.1734,0.176 z m 68,-0.01 0.1734,-30.5 19.58606,-0.1769 c 14.17904,-0.1281 19.8449,0.038 20.52368,0.6013 0.70805,0.5876 0.89101,2.2632 0.74727,6.8435 l -0.19035,6.065 -12.28369,0.1821 c -7.6824,0.1139 -12.61444,0.4567 -13.16667,0.915 -1.31972,1.0953 -1.1821,7.6454 0.17156,8.1649 0.57998,0.2226 4.77998,0.4046 9.33333,0.4046 h 8.27881 v 6.3334 6.3333 h -8.53334 c -5.74814,0 -8.79444,0.2611 -9.33333,0.8 -0.46061,0.4606 -0.8,2.6667 -0.8,5.2 0,2.5333 0.33939,4.7394 0.8,5.2 0.56695,0.5669 4.54815,0.8 13.66667,0.8 h 12.86666 v 6.6667 6.6666 h -21.00672 -21.00673 l 0.17339,-30.5 z M 36.878872,805.97182 c -9.40798,-0.8144 -18.26461,-2.6841 -22.09405,-4.6644 -7.1528602,-3.6989 -8.3314502,-7.921 -3.90595,-13.99245 0.87742,-1.2038 4.34128,-3.9736 12.66667,-10.1288 7.88694,-5.83107 17.59663,-18.44693 22.95845,-29.83013 3.62023,-7.68574 3.2848,-6.8982 7.38235,-17.33334 3.92459,-9.99466 4.18729,-10.6598 4.93685,-12.5 0.33604,-0.825 1.71964,-4.35 3.07466,-7.83333 1.35502,-3.48333 2.77021,-7.08333 3.14487,-8 0.37467,-0.91667 0.9259,-2.26667 1.22496,-3 0.29906,-0.73333 2.66526,-6.73333 5.25822,-13.33333 2.59297,-6.6 4.97997,-12.6 5.30445,-13.33334 0.32449,-0.73333 1.86103,-4.63333 3.41454,-8.66666 1.55352,-4.03334 3.26228,-8.38334 3.79725,-9.66667 1.43413,-3.4403 1.8162,-4.40103 4.44984,-11.18921 3.3748,-8.69851 4.88569,-11.85066 8.05778,-16.81079 5.355638,-8.37449 13.215818,-15.09115 20.329108,-17.37157 4.06817,-1.3042 27.88953,-1.1681 31.33333,0.17902 11.17251,4.37038 19.05257,13.28248 24.63305,27.85922 0.77205,2.01666 1.67576,4.26666 2.00825,5 0.33249,0.73333 1.2487,3.28333 2.03604,5.66666 1.59456,4.82692 4.46976,12.95073 5.30884,15 0.30026,0.73334 0.90648,2.38334 1.34716,3.66667 0.44067,1.28333 1.04067,2.93333 1.33333,3.66667 0.29266,0.73333 0.90739,2.38333 1.36606,3.66666 0.45867,1.28334 1.20479,3.23334 1.65805,4.33334 0.45326,1.1 1.4924,3.8 2.30922,6 0.81682,2.2 1.91206,4.96866 2.43386,6.15266 0.5218,1.18394 1.37657,3.36527 1.89948,4.84734 0.5229,1.48206 1.44241,3.8134 2.04334,5.18066 0.60093,1.36734 1.33212,3.086 1.62486,3.81934 0.29274,0.73333 1.16215,2.75506 1.93202,4.49273 0.76988,1.73767 1.39978,3.30447 1.39978,3.4818 0,0.17727 0.78166,2.05553 1.73702,4.17393 3.85964,8.55807 4.47556,9.9324 5.31124,11.85154 1.89856,4.36 13.09259,26.9756 15.80806,31.93746 4.10011,7.49194 9.07095,12.90887 19.7706,21.54467 7.43782,6.0032 10.70641,10.19685 10.70641,13.73635 0,4.0863 -7.19919,8.1781 -17.33333,9.852 -5.1242,0.8463 -28.43866,2.4233 -31.66667,2.1419 -1.46667,-0.1278 -7.31667,-0.5315 -13,-0.897 -19.13808,-1.2308 -27.96556,-3.0038 -36.85857,-7.403 -7.55898,-3.7394 -8.73546,-7.9803 -4.12128,-14.85605 2.61035,-3.88973 2.64607,-4.0264 2.61403,-10 -0.0301,-5.612 -1.37336,-14.1654 -3.09737,-19.723 -2.33362,-7.52273 -7.37812,-13.56793 -13.85877,-16.608 l -3.67804,-1.72533 -24.58988,-0.1904 c -27.262188,-0.21107 -28.899408,-0.014 -33.510228,4.0344 -3.74716,3.29006 -4.90135,6.27086 -4.89019,12.62946 0.0168,9.5618 3.42615,16.69627 12.67626,26.52654 9.21193,9.78966 9.99868,12.71408 4.81404,17.89398 -2.70148,2.699 -4.14207,3.4869 -9.80654,5.3638 -7.90837,2.6204 -11.09384,3.257 -20.36013,4.0688 -3.85,0.3372 -8.05,0.7285 -9.33333,0.8695 -1.28333,0.141 -6.68333,-0.1201 -12,-0.5803 z M 127.8527,714.96504 c 4.67835,-2.19914 5.84028,-4.44087 5.49871,-10.609 -0.2505,-4.5236 -2.79287,-13.1158 -5.17547,-17.49094 -0.34672,-0.63673 -0.6304,-1.4458 -0.6304,-1.79806 0,-0.77454 -3.3234,-7.96667 -9.21846,-19.94961 -4.62664,-9.40458 -7.09184,-12.76139 -9.37183,-12.76139 -2.26103,0 -5.11901,3.3475 -7.11471,8.33333 -1.02736,2.56667 -2.114028,4.95167 -2.414798,5.3 -0.30078,0.34833 -0.54687,1.0266 -0.54687,1.50727 0,0.48066 -0.56195,2.14566 -1.24877,3.7 -0.68683,1.55433 -2.3697,5.67606 -3.73972,9.1594 -1.37001,3.48333 -2.74904,6.93333 -3.0645,7.66666 -2.32186,5.39754 -5.28034,16.4066 -5.28034,19.6492 0,8.342 3.05876,9.41427 25.730918,9.02014 12.2099,-0.21227 13.67936,-0.36534 16.57624,-1.727 z m 195.3595,91.03958 c -11.12582,-0.8588 -16.69624,-1.5482 -23.33333,-2.8876 -4.64886,-0.9381 -14.39765,-3.4265 -16,-4.0839 -0.73333,-0.3009 -3.13333,-1.2154 -5.33333,-2.0322 -11.92564,-4.4278 -19.54602,-9.07855 -26.69806,-16.29395 -9.74688,-9.83313 -12.87871,-20.41493 -8.78549,-29.68427 1.16245,-2.6324 8.65059,-9.51186 12.22787,-11.23386 1.79062,-0.862 3.7766,-1.837 4.4133,-2.16667 0.63669,-0.32973 1.74398,-0.59947 2.46065,-0.59947 0.71667,0 1.46886,-0.26833 1.67154,-0.59626 0.70275,-1.13707 16.09299,-2.80054 21.71019,-2.3466 15.28768,1.23546 26.53102,7.34906 31.15934,16.94286 1.69107,3.50534 1.76266,4.09207 1.62675,13.33334 -0.17911,12.17893 0.42974,14.54913 4.88057,19 3.87204,3.87206 6.9045,5 13.44217,5 5.18907,0 7.91308,-0.80954 12.65712,-3.7614 5.85185,-3.64114 8.90071,-9.49867 8.90071,-17.10027 0,-11.61227 -9.32423,-21.06713 -32.24317,-32.69487 -5.18292,-2.62946 -11.37349,-5.6374 -13.75683,-6.68426 -10.52816,-4.62447 -32.85506,-16.0428 -38.37022,-19.6232 -7.55036,-4.90167 -8.76431,-5.88687 -15.09673,-12.25167 -13.29861,-13.3666 -15.62565,-31.76853 -6.35033,-50.21767 4.11411,-8.18322 15.42385,-19.17557 24.81728,-24.12083 10.81404,-5.69315 18.9022,-8.65994 30.66667,-11.24873 11.69724,-2.574 26.96209,-3.61511 42,-2.86452 30.84686,1.53966 56.24639,14.87272 66.48609,34.90075 2.86146,5.5968 3.40418,7.62275 3.36808,12.57299 -0.0415,5.70016 -1.25168,8.82452 -4.78726,12.3601 -9.06037,9.06038 -27.83596,11.36738 -43.73358,5.37371 -9.52188,-3.58993 -17.69893,-11.62518 -20.6652,-20.3068 -0.25056,-0.73333 -1.04826,-3.56845 -1.77268,-6.30025 -2.90635,-10.96 -8.26958,-18.43598 -14.56766,-20.3063 -3.65638,-1.08583 -6.06579,-0.58681 -9.68404,2.00568 -4.40127,3.15354 -6.82535,11.8816 -5.39086,19.41011 2.04187,10.71614 7.84972,17.65395 23.41378,27.96916 3.50233,2.3212 7.99339,4.694 23.66666,12.504 7.15,3.56287 14.05,7.03053 15.33334,7.70593 1.28333,0.6754 4.88333,2.56074 8,4.1896 12.73823,6.65747 20.86346,12.0938 27.57817,18.45174 3.8712,3.66546 8.81544,10.14913 10.19586,13.37033 0.39283,0.91667 1.04023,2.41667 1.43867,3.33333 2.32204,5.3422 2.79876,13.94347 1.13439,20.46747 -0.54243,2.1262 -2.2674,6.41587 -3.83326,9.53253 -2.27937,4.5368 -4.10981,6.9396 -9.18043,12.05094 -9.19486,9.26866 -18.54485,15.26868 -32.3334,20.74868 -5.78959,2.301 -14.15706,4.7591 -20,5.8754 -2.2,0.4203 -5.2,1.0253 -6.66667,1.3443 -1.46667,0.3191 -5.96667,0.7577 -10,0.9747 -4.03333,0.2171 -8.68333,0.4999 -10.33333,0.6287 -1.65,0.1288 -8.1,-0.1596 -14.33334,-0.6408 z m 135,0.01 c -12.96154,-1.0101 -16.3577,-1.6018 -21.49341,-3.7448 -13.43028,-5.604 -14.58345,-16.02871 -3.56703,-32.24618 5.79168,-8.52607 7.1369,-12.96953 9.68772,-32 0.39318,-2.93333 0.71256,-13.43333 0.70973,-23.33333 -0.006,-21.18607 -1.47899,-37.965 -4.7404,-54 -0.37289,-1.83334 -0.84281,-4.31112 -1.04429,-5.50618 -0.20146,-1.19507 -0.63316,-2.33777 -0.95931,-2.53935 -0.32615,-0.20184 -0.59301,-0.90297 -0.59301,-1.55833 0,-1.43739 -1.5874,-4.77878 -3.9889,-8.39641 -3.2184,-4.84821 -6.68338,-13.82351 -6.67404,-17.28767 0.0128,-4.74553 3.29593,-9.85648 7.84798,-12.21715 3.87653,-2.01035 10.59244,-3.93852 17.1483,-4.92335 8.65178,-1.29969 81.96906,-1.2993 88.66666,4.7e-4 6.1492,1.19335 16.50042,4.08615 17.3,4.83475 0.34834,0.32612 1.09834,0.59676 1.66667,0.60142 1.22029,0.01 11.23105,5.0203 12.75249,6.38252 0.57888,0.51829 1.25052,0.94234 1.49256,0.94234 1.79254,0 13.85474,10.84096 17.52521,15.75088 1.06136,1.41976 2.45474,3.16318 3.09641,3.87429 0.64166,0.7111 1.16666,1.54231 1.16666,1.84712 0,0.30481 0.69343,1.67325 1.54094,3.04096 0.84752,1.36771 1.9278,3.53675 2.40062,4.82009 0.47282,1.28333 1.10158,2.93333 1.39724,3.66666 2.32204,5.7594 3.29024,22.7014 1.56205,27.33334 -0.41042,1.1 -1.14074,3.35 -1.62295,5 -1.8328,6.27146 -6.83386,14.4606 -12.91186,21.14293 -3.52914,3.88 -13.3855,11.87713 -15.6729,12.71647 -0.56456,0.2072 -1.17647,0.54853 -1.3598,0.75866 -0.80432,0.9216 -10.79861,5.41194 -15.65248,7.0324 -10.37058,3.46227 -16.73629,4.3484 -34.52275,4.80574 -9.10008,0.234 -16.66818,0.62373 -16.81801,0.8662 -0.14982,0.2424 0.15594,4.01906 0.67946,8.39253 1.50402,12.5642 1.78702,14.29287 2.4022,14.67307 0.31804,0.19653 0.57824,0.94293 0.57824,1.6586 0,2.4078 3.84512,9.55846 7,13.01773 0.55108,0.6042 3.22404,5.73333 5.78108,11.09327 0.30374,0.63673 0.55226,3.21986 0.55226,5.74033 0,3.81608 -0.28516,5.00288 -1.7047,7.09468 -2.35489,3.4701 -2.92923,3.9705 -6.676,5.8155 -5.92561,2.918 -12.6382,4.3178 -23.28597,4.8558 -4.03333,0.2039 -9.73333,0.4904 -12.66667,0.6368 -2.93333,0.1464 -10.58333,-0.143 -17,-0.643 z m 65.8406,-89.78031 c 3.36382,-1.5502 11.1475,-8.99294 12.82501,-12.26327 0.54941,-1.07107 1.16677,-2.0974 1.3719,-2.28073 0.60491,-0.54067 4.74499,-9.42474 5.42175,-11.6344 1.62821,-5.3162 2.47483,-9.18247 3.21877,-14.69894 0.68283,-5.06333 0.64542,-6.98873 -0.23958,-12.33333 -1.32309,-7.99023 -1.73924,-10.00415 -2.4108,-11.66667 -0.29623,-0.73333 -1.37491,-3.43333 -2.39709,-6 -1.02217,-2.56666 -2.40721,-5.46298 -3.07786,-6.43624 -0.67065,-0.97354 -1.21936,-1.95498 -1.21936,-2.18125 0,-0.62703 -6.72604,-9.04933 -7.22752,-9.05025 -0.24154,-4.5e-4 -1.30237,-0.7432 -2.35741,-1.65055 -2.05685,-1.76859 -8.26981,-4.34831 -10.47319,-4.34831 -2.13466,0 -4.96126,1.75437 -7.37497,4.57736 -3.22608,3.77313 -5.20409,9.42279 -7.61702,21.75597 -1.67135,8.54274 -1.66577,35.37174 0.009,44 2.59092,13.347 4.46618,18.3558 8.4184,22.48574 2.86896,2.99793 3.24337,3.18093 6.50727,3.18093 2.15155,0 4.65972,-0.5514 6.62256,-1.456 z m 107.1594,89.73191 c -14.44716,-1.1008 -18.35202,-1.891 -24.27517,-4.9128 -5.56974,-2.8415 -8.05816,-6.6117 -8.05816,-12.20892 0,-6.25926 2.37829,-12.153 8.26731,-20.48746 3.03057,-4.289 4.31712,-7.38467 5.957,-14.33334 2.14929,-9.1072 3.80492,-26.14506 3.78977,-39 -0.0194,-16.4822 -2.83541,-45.24126 -5.45069,-55.66666 -1.74356,-6.95043 -2.06716,-8.0779 -2.62836,-9.15762 -0.33094,-0.6367 -0.6017,-1.46905 -0.6017,-1.84968 0,-0.38063 -1.19225,-2.57985 -2.64944,-4.88716 -4.32948,-6.85522 -6.16158,-11.58447 -6.52155,-16.8342 -0.25121,-3.66346 -0.0557,-5.29455 0.86788,-7.24086 2.25843,-4.7593 10.10442,-8.94223 19.63645,-10.46878 8.76608,-1.40388 35.01417,-1.94186 82,-1.68067 51.52886,0.28645 51.05706,0.26219 58.02106,2.98261 18.49547,7.22508 31.9434,22.6672 31.97174,36.7128 0.0167,8.38889 -7.38107,15.24685 -19.45467,18.03454 -3.96193,0.91477 -11.40267,0.92426 -14.87147,0.0189 -7.86946,-2.05381 -12.18673,-5.88537 -16.48453,-14.62994 -3.75353,-7.6371 -6.8926,-11.96894 -11.6722,-16.1071 -3.1226,-2.70361 -5.494,-4.09208 -12.73,-7.45371 -0.8544,-0.39691 -4.7544,-0.73252 -8.66667,-0.74579 -6.98026,-0.0237 -7.1726,0.017 -10.28546,2.17706 -1.74467,1.21066 -3.91374,2.94273 -4.82007,3.84906 -2.06493,2.06493 -6.4158,8.52698 -7.8196,11.61381 -2.77727,6.10723 -3.8904,9.05089 -5.29373,14 -2.41327,8.51077 -5.66614,28.56254 -4.94034,30.454 0.36847,0.96014 1.50954,1.03694 9.89787,0.6656 9.75327,-0.43173 11.9338,-0.91053 17.2256,-3.7826 4.12607,-2.2394 6.93467,-4.8158 10.9056,-10.00393 5.48993,-7.17287 7.11073,-8.37791 10.3202,-7.67299 6.806,1.49486 12.23907,21.03846 10.32927,37.15592 -1.37387,11.59414 -4.00767,19.03147 -7.89927,22.30614 -1.60233,1.34826 -2.39773,1.57073 -4.34727,1.216 -2.497,-0.45434 -3.37226,-1.20854 -7.73026,-6.6608 -6.54267,-8.1856 -9.70867,-10.6078 -16.9326,-12.9546 -3.4938,-1.13507 -5.9652,-1.3894 -13.5,-1.3894 h -9.2232 v 8.71206 c 0,11.92014 2.1054,27.166 5.47153,39.62127 2.98887,11.05913 7.82,20.7654 12.97727,26.07273 5.17973,5.33047 8.71346,6.92727 15.32993,6.92727 5.7706,0 7.8842,-0.54347 14.5546,-3.74213 7.99173,-3.8324 13.5144,-9.94287 19.26033,-21.3104 4.44927,-8.80234 6.33647,-10.59874 14.40634,-13.71354 3.48526,-1.3452 16.14626,-1.1572 20.21853,0.3002 15.485,5.54207 19.6014,15.6918 12.2486,30.20174 -4.7738,9.4208 -15.3616,18.08497 -28.80047,23.56817 -2.55113,1.0408 -6.6988,1.9731 -11.86053,2.6657 -7.69593,1.0327 -101.68863,0.7411 -116.13947,-0.3602 z m 179.33334,0.04 c -7.57194,-0.9486 -13.61074,-2.7086 -17.88154,-5.2114 -5.65213,-3.3124 -6.50346,-6.9436 -2.75986,-11.77138 5.385,-6.94453 7.48553,-10.76153 9.76806,-17.75007 2.69974,-8.26613 4.21047,-15.21986 5.8476,-26.9166 5.08574,-36.33493 2.86227,-80.43403 -5.15966,-102.33333 -2.19927,-6.00391 -3.641,-8.56521 -7.12994,-12.66667 -6.12953,-7.20568 -7.116,-10.7412 -3.85133,-13.80363 2.10407,-1.97369 7.276,-4.61403 11.16667,-5.70071 8.81506,-2.46207 9.264,-2.49578 32.66666,-2.4531 21.76587,0.0397 23.714,0.1407 29,1.50358 20.7578,5.35197 34.43707,19.55871 46.01295,47.7872 1.6066,3.91766 5.876,16.29953 6.6663,19.33333 0.2866,1.1 1.4521,5.15 2.5901,9 1.138,3.85 2.4085,8.2 2.8233,9.66667 0.4148,1.46666 1.0114,3.56666 1.3257,4.66666 0.3142,1.1 1.6262,5.75 2.9154,10.33334 1.2892,4.58333 2.6415,8.85426 3.0051,9.49093 0.3636,0.63673 0.6611,1.744 0.6611,2.46067 0,0.71666 0.3,1.48846 0.6667,1.71506 0.3667,0.2266 0.6667,0.9984 0.6667,1.71507 0,0.71667 0.2754,1.82393 0.6122,2.46067 0.3366,0.63666 1.2658,2.6576 2.0648,4.49093 2.9513,6.77247 3.6399,8.09453 6.5095,12.49793 2.922,4.4838 5.8526,7.42927 6.8057,6.8402 0.2762,-0.17066 0.7128,-1.8916 0.9703,-3.8242 2.5043,-18.79453 3.4423,-41.88966 2.4607,-60.57853 -1.7204,-32.75229 -6.0896,-49.29402 -15.6847,-59.38156 -6.5169,-6.85135 -5.7647,-11.56219 2.4525,-15.3609 3.2871,-1.51953 5.0706,-2.10723 11.553,-3.80683 4.0767,-1.06887 20.1526,-0.91087 24.3901,0.23972 8.8761,2.41004 13.2198,4.41388 15.5367,7.16736 2.9551,3.51191 1.967,6.89158 -3.8698,13.23672 -3.1419,3.41548 -7.4266,11.352 -8.6183,15.9634 -1.3575,5.2533 -1.9649,7.83622 -2.5883,11.00669 -7.4885,38.09073 -3.4738,103.7588 7.5584,123.6332 1.4196,2.5572 3.3842,5.20747 6.2024,8.3668 4.7604,5.33668 3.769,9.87948 -2.8404,13.01538 -3.0408,1.4428 -4.5157,1.9192 -10.5148,3.3968 -6.4274,1.583 -22.4368,2.3302 -32.3334,1.5091 -5.3166,-0.4411 -10.4166,-0.9973 -11.3333,-1.236 -0.9167,-0.2387 -3.0167,-0.745 -4.6667,-1.1251 -17.1376,-3.9478 -34.14141,-14.61218 -45.00648,-28.22685 -1.46307,-1.83333 -2.84847,-3.48333 -3.07867,-3.66666 -0.23026,-0.18334 -2.34913,-3.33334 -4.70873,-7 -5.13147,-7.97414 -13.7402,-25.2504 -14.9154,-29.93274 -0.24113,-0.9606 -0.70513,-1.9114 -1.0312,-2.11293 -0.32607,-0.20114 -0.5928,-0.9524 -0.5928,-1.66907 0,-0.71667 -0.2858,-1.82393 -0.6352,-2.46067 -0.89093,-1.6238 -5.386,-15.62266 -7.43593,-23.1576 -0.399,-1.46666 -0.99627,-3.1876 -1.3272,-3.82426 -0.33094,-0.63674 -0.60167,-1.7476 -0.60167,-2.46867 0,-0.72107 -0.282,-2.00013 -0.6266,-2.84233 -0.34467,-0.84227 -1.7266,-5.1314 -3.07113,-9.5314 -4.1258,-13.5024 -7.56107,-22.14242 -9.78294,-24.60494 -1.38226,-1.53201 -1.4506,-1.37469 -2.4362,5.60494 -2.89626,20.511 -2.658,53.521 0.55814,77.33333 1.27166,9.4152 2.62873,16.46953 4.0398,21 3.59673,11.5474 5.37833,15.376 9.15173,19.66667 3.22067,3.6622 4.83387,6.68408 4.83387,9.05488 0,4.8339 -11.37987,10.3366 -23.33334,11.2829 -2.75,0.2176 -5.45,0.4898 -6,0.6046 -0.55,0.115 -4,-0.1669 -7.66666,-0.6262 z M 480.87887,553.58915 c -7.09589,-0.57834 -19.85575,-2.2007 -25.33333,-3.22102 -6.56051,-1.22203 -11.11034,-2.13873 -13.33334,-2.68639 -1.28333,-0.31617 -3.83333,-0.92248 -5.66666,-1.34734 -1.83334,-0.42488 -4.08334,-1.01563 -5,-1.31279 -0.91667,-0.29716 -4.36667,-1.35042 -7.66667,-2.34058 -3.3,-0.99015 -6.6,-2.05323 -7.33333,-2.36239 -0.73334,-0.30917 -2.68334,-1.00453 -4.33334,-1.54526 -2.8757,-0.94242 -5.61316,-2.02712 -10.66666,-4.22662 -1.28334,-0.55856 -3.38334,-1.4723 -4.66667,-2.03054 -5.17816,-2.25243 -16.48879,-7.83626 -18.87681,-9.3191 -1.39891,-0.86865 -3.57391,-2.16325 -4.83333,-2.87689 -1.25943,-0.71364 -3.31971,-1.88109 -4.57843,-2.59433 -2.083,-1.18032 -9.09369,-5.67036 -10.71143,-6.8602 -0.36667,-0.26968 -3.70764,-2.71796 -7.42439,-5.44062 -22.19446,-16.25832 -43.54212,-38.36291 -58.01206,-60.06904 -7.93467,-11.90266 -10.01577,-15.39614 -15.8856,-26.66667 -5.73822,-11.01783 -14.5073,-32.70127 -17.12017,-42.33333 -0.34813,-1.28334 -0.93599,-3.38334 -1.30636,-4.66667 -1.61532,-5.59707 -5.20282,-21.65099 -6.03357,-27 -5.10094,-32.84383 -3.68279,-69.31834 3.86214,-99.33333 2.41929,-9.62431 3.12602,-12.0371 5.9558,-20.33334 5.27744,-15.47217 11.60392,-29.8538 18.32917,-41.66666 4.59695,-8.07452 6.18459,-10.70042 9.67373,-16 2.17266,-3.3 4.31728,-6.45 4.76581,-7 0.44854,-0.55 2.69801,-3.55 4.99884,-6.66667 2.30082,-3.11667 4.78632,-6.3912 5.52332,-7.27675 11.8978,-14.29576 24.99908,-26.96062 41.78549,-40.39354 1.662,-1.32998 11.82178,-8.562657 13.10548,-9.329707 0.61364,-0.36667 2.51976,-1.64167 4.23582,-2.83333 1.71606,-1.19167 3.44106,-2.16667 3.83334,-2.16667 0.39226,0 0.71321,-0.3 0.71321,-0.66667 0,-0.36666 0.27521,-0.66666 0.61158,-0.66666 0.33637,0 2.81137,-1.29866 5.5,-2.8859 6.17626,-3.64618 28.31621,-14.44744 29.61373,-14.44744 0.22359,0 1.35186,-0.41584 2.50727,-0.9241 3.74997,-1.64958 9.27747,-3.60153 17.10075,-6.03887 11.39196,-3.54915 15.41135,-4.55797 27.66667,-6.94403 6.22699,-1.21236 8.81089,-1.60071 22.66667,-3.40666 6.83816,-0.89129 41.33703,-0.89659 48.13943,-0.007 2.85665,0.37341 7.7439,1.00842 10.86057,1.41115 7.01085,0.90591 17.8133,3.02991 26.66666,5.24325 1.46667,0.36667 3.79167,0.92102 5.16667,1.2319 5.47107,1.23696 23.18274,7.49334 30.58349,10.80316 1.78741,0.79938 4.29984,1.90095 5.58318,2.44792 3.53158,1.50522 14.45025,7.07952 19.33333,9.87024 2.38333,1.36209 5.2681,3.01212 6.4106,3.66672 1.14249,0.6546 4.59249,2.81284 7.66667,4.79606 4.77394,3.0798 8.35339,5.669067 20.50847,14.835197 0.96117,0.72483 2.94759,2.41668 4.41426,3.75968 1.46667,1.343 3.71389,3.29996 4.99383,4.34881 6.8495,5.61279 22.80564,22.64638 30.87604,32.96098 4.0634,5.1933 16.6084,23.71636 19.15253,28.27934 7.9092,14.18518 19.31093,39.30992 19.31093,42.55339 0,0.56902 0.3,1.21999 0.66667,1.44661 0.36667,0.22661 0.66667,0.99838 0.66667,1.71506 0,0.71666 0.27073,1.82396 0.60166,2.46065 0.33094,0.63669 0.96574,2.50762 1.41067,4.15762 0.44493,1.65 1.05767,3.75 1.36167,4.66667 0.48886,1.474 1.31693,4.66648 3.28566,12.66666 1.06414,4.32425 2.52387,12.62719 4.4538,25.33334 1.68667,11.10452 1.7028,48.21094 0.026,59.66666 -1.71166,11.69333 -3.34733,21.06509 -4.47973,25.66667 -2.97713,12.09807 -5.13053,19.74821 -6.04933,21.49095 -0.33567,0.6367 -0.61034,1.57169 -0.61034,2.07777 0,0.50608 -0.5778,2.38515 -1.284,4.17571 -0.70613,1.79056 -2.53193,6.40557 -4.05726,10.25557 -2.808,7.08763 -9.98934,22.06809 -14.38134,30 -4.3046,7.77405 -19.97213,30.77201 -22.2544,32.66667 -0.22086,0.18333 -1.58833,1.83333 -3.03886,3.66666 -7.485,9.46034 -21.17687,23.01246 -34.39412,34.04312 -6.05002,5.04909 -30.89877,22.29022 -32.1258,22.29022 -0.16134,0 -3.20689,1.65 -6.76788,3.66666 -3.56098,2.01666 -6.56538,3.66666 -6.67644,3.66666 -0.11106,0 -3.16098,1.37177 -6.77761,3.04839 -9.49351,4.40104 -10.00621,4.61971 -16.24235,6.92728 -3.11667,1.15326 -6.1876,2.38053 -6.82429,2.72726 -0.63669,0.34672 -1.61576,0.6304 -2.17571,0.6304 -0.55996,0 -1.53902,0.26318 -2.17572,0.58483 -1.19184,0.60212 -2.9228,1.14158 -9.82428,3.06179 -3.73873,1.04022 -5.02495,1.37244 -11.5,2.97032 -2.37087,0.58508 -6.81425,1.48312 -13.5,2.72849 -18.37589,3.42291 -42.48456,4.70293 -60.66667,3.22102 z m -36.8429,-31.95782 c 8.93311,-2.03824 15.16199,-4.61526 21.37789,-8.84451 10.65368,-7.24866 17.81162,-16.68643 21.81573,-28.76412 3.7674,-11.36368 3.98031,-38.38498 0.41236,-52.33333 -2.47641,-9.68111 -7.90604,-17.94841 -15.05667,-22.92567 -9.56846,-6.66023 -20.19104,-9.44957 -33.95828,-8.91698 -9.46165,0.36602 -14.1366,1.6961 -23.4148,6.66182 -21.15243,11.32085 -30.36926,14.42724 -46.99744,15.83977 -10.24243,0.87007 -24.06016,-0.28775 -33.00256,-2.76536 -9.26978,-2.56832 -19.014,-6.84097 -23.23717,-10.18905 -2.63106,-2.08586 -5.09812,-6.04677 -5.09367,-8.17797 0.004,-1.86501 2.48602,-5.47397 4.34843,-6.32254 2.19787,-1.00142 6.92893,0.44699 14.49367,4.43724 5.80446,3.06174 11.0773,5.01016 17.15541,6.33927 2.01667,0.44099 4.75147,1.07578 6.07735,1.41064 3.39722,0.85799 19.93828,0.7584 23.74642,-0.14298 4.8773,-1.15444 13.50512,-3.92634 16.8429,-5.4112 3.03962,-1.35222 7.73324,-3.5282 18,-8.34489 14.92377,-7.00155 22.07202,-8.82543 34.58907,-8.82543 8.33285,0 10.31833,0.30956 17.93897,2.79697 4.37302,1.42738 5.95577,1.22928 3.75662,-0.47019 -5.82366,-4.50042 -21.91662,-13.58628 -28.73478,-16.22325 -6.9254,-2.67843 -10.08326,-3.81083 -16.88322,-6.05424 -4.21666,-1.39115 -9.01666,-2.90613 -10.66666,-3.36664 -1.65,-0.46051 -3.75,-1.06527 -4.66667,-1.34391 -6.75059,-2.05201 -19.77745,-3.99948 -26.77469,-4.00273 -11.92025,-0.005 -24.29565,3.74046 -32.44131,9.81988 -2.34852,1.75279 -4.74845,4.08415 -9.15462,8.89302 -5.01395,5.47221 -9.54413,9.12004 -11.86729,9.55587 -3.23154,0.60624 -5.66203,-0.53581 -6.76665,-3.17954 -2.39819,-5.73966 1.71323,-12.43354 15.23165,-24.7989 2.04774,-1.87308 11.74443,-8.17092 14.10624,-9.16177 3.0492,-1.27924 9.649,-3.14265 12.80998,-3.61681 2.2696,-0.34046 3.8941,-1.70854 3.25558,-2.7417 -0.21042,-0.34045 -1.21124,-0.79016 -2.22406,-0.99936 -1.01282,-0.20919 -3.3415,-0.69739 -5.17483,-1.08488 -12.43997,-2.62932 -24.99313,-2.63566 -39.33333,-0.0199 -2.2,0.40131 -4.97778,0.89818 -6.17285,1.10417 -1.19507,0.20599 -2.33777,0.64138 -2.53935,0.96754 -0.20157,0.32615 -1.10286,0.593 -2.00286,0.593 -0.9,0 -2.1573,0.284 -2.79399,0.63111 -0.63669,0.34711 -3.09595,1.26861 -5.46503,2.04779 -5.18448,1.70514 -7.75015,1.37776 -10.33339,-1.31856 -3.53225,-3.68688 -1.85543,-10.13229 3.1235,-12.00624 1.20118,-0.4521 2.78397,-1.05599 3.5173,-1.342 2.45995,-0.95938 10.62853,-3.32975 14.66667,-4.25599 12.30986,-2.82356 19.16172,-3.75611 27.59778,-3.75611 5.90602,0 7.52112,-0.20079 7.81698,-0.97182 0.46446,-1.21034 -9.71957,-14.27275 -15.69763,-20.13438 -3.86015,-3.78497 -9.85597,-7.4576 -15.71713,-9.62726 -4.78868,-1.77264 -15.5371,-2.06146 -22.66667,-0.60908 -2.56667,0.52286 -7.96667,0.98525 -12,1.02753 l -7.33333,0.0769 0.0265,14.28573 c 0.0408,22.00013 2.49419,41.13631 7.55814,58.9524 0.31266,1.1 0.95194,3.35 1.42062,5 0.8768,3.08675 4.9834,15.29312 5.94363,17.66667 4.76295,11.77341 8.38508,19.52102 14.33717,30.66667 4.88064,9.13928 15.45709,24.32878 24.60259,35.33333 9.77065,11.75677 23.36289,24.69255 36.11137,34.36731 2.56666,1.94783 4.81666,3.71203 5,3.92044 0.18333,0.2084 0.8321,0.67892 1.4417,1.04558 0.6096,0.36667 3.21585,2.08569 5.79166,3.82004 15.13865,10.19326 39.21779,22.24728 49.09997,24.57946 1.83333,0.43266 4.08333,1.0211 5,1.30762 2.52646,0.7897 15.55799,0.7227 19.1571,-0.0985 z m 140.50957,-4.2211 c 2.2,-0.58911 4.6,-1.33671 5.33333,-1.66134 0.73333,-0.32463 2.53333,-1.10181 4,-1.72706 10.2592,-4.37357 36.7858,-19.73695 37.55555,-21.75102 0.12223,-0.31979 0.49682,-0.58144 0.83244,-0.58144 0.51004,0 8.21868,-5.55739 9.27868,-6.68927 0.18333,-0.19577 1.83333,-1.545 3.66666,-2.9983 11.66688,-9.24841 28.09134,-26.59981 38.4684,-40.63945 1.35767,-1.83681 2.7714,-3.68992 3.14167,-4.11803 0.94213,-1.08934 9.38993,-14.18689 9.38993,-14.55823 0,-0.16729 0.99034,-1.88499 2.20074,-3.81711 1.9868,-3.17137 9.43626,-17.9564 12.02353,-23.86306 2.42467,-5.53561 5.10907,-12.60815 5.10907,-13.46094 0,-0.50725 0.23873,-1.20728 0.5306,-1.55561 0.5348,-0.63841 1.2576,-2.78877 2.78993,-8.3 0.45873,-1.65 1.0828,-3.75 1.3868,-4.66667 0.49853,-1.50311 1.73247,-6.28681 3.26733,-12.66666 0.3088,-1.28334 0.90554,-4.43334 1.32614,-7 0.4206,-2.56667 1.06173,-5.98992 1.42473,-7.60722 0.363,-1.6173 0.4072,-3.19339 0.0982,-3.50241 -0.30907,-0.30903 -3.3958,0.0825 -6.85947,0.87013 -5.5214,1.2555 -8.39286,1.4366 -23.2976,1.46937 -10.6856,0.0235 -18.60953,-0.26368 -21.33333,-0.77315 -5.10027,-0.95397 -19.43211,-3.37632 -24.66667,-4.16912 -2.01666,-0.30543 -5.61666,-0.89788 -8,-1.31655 -12.60257,-2.21382 -21.33333,-3.1255 -21.33333,-2.22765 0,0.74505 1.07407,1.42059 8.46834,5.32622 6.50963,3.43835 10.28009,6.24928 15.08651,11.24718 6.78043,7.05056 10.26131,14.28966 8.47556,17.62639 -0.77736,1.45249 -3.97186,3.39014 -5.58916,3.39014 -1.51142,0 -7.70346,-4.49891 -12.44125,-9.03935 -5.64383,-5.40875 -11.42914,-10.29398 -12.19057,-10.29398 -0.33198,0 -1.39992,-0.55106 -2.37318,-1.22457 -2.32422,-1.60837 -13.22524,-6.10877 -14.79688,-6.10877 -0.67504,0 -1.39227,-0.26685 -1.59384,-0.593 -0.20158,-0.32616 -1.34428,-0.75951 -2.53935,-0.963 -1.19507,-0.2035 -3.67285,-0.69205 -5.50618,-1.08568 -16.01438,-3.4384 -28.69615,-3.39694 -34.89277,0.11405 -1.34231,0.76055 -3.79056,2.13834 -5.44056,3.06176 -9.25474,5.17941 -15.83205,10.49611 -21.60711,17.46587 -4.93081,5.95088 -11.72623,15.57154 -11.72623,16.60151 0,0.40251 -0.26501,0.73183 -0.58891,0.73183 -0.3239,0 -0.74581,0.6 -0.93759,1.33333 -0.20367,0.77885 -0.0205,1.33333 0.44058,1.33333 0.71925,0 3.61376,-1.72378 4.41926,-2.63181 0.18333,-0.20667 1.38333,-1.14653 2.66666,-2.08857 7.46965,-5.48315 18.60124,-8.90957 31.33334,-9.64474 17.13395,-0.98934 34.16501,3.12592 47.05113,11.36907 2.00278,1.28116 3.75323,2.32939 3.88989,2.32939 0.13665,0 2.85946,1.63923 6.05068,3.64274 13.13111,8.24397 24.03458,10.71444 47.0083,10.65102 7.88333,-0.0217 16.75866,-0.28624 19.72293,-0.5877 4.64267,-0.47216 5.64033,-0.38386 7.19847,0.63708 2.7198,1.78207 3.9716,5.2696 2.92766,8.15649 -1.27493,3.52575 -3.31986,4.5193 -11.1824,5.43297 -3.85,0.4474 -8.65,1.04451 -10.66666,1.32691 l -3.66667,0.51346 2,0.83669 c 1.1,0.46018 4.47113,1.20142 7.49133,1.64718 4.5276,0.66824 5.84394,1.14824 7.5,2.73488 1.66674,1.59684 2.00867,2.44916 2.00867,5.0073 0,3.39614 -1.22787,5.22272 -4.7274,7.0324 -2.10493,1.08849 -2.4328,1.06017 -12.93927,-1.11735 -3.49493,-0.72435 -13.04936,-3.55095 -15.33333,-4.53626 -0.73333,-0.31636 -2.53333,-1.08531 -4,-1.70878 -5.4949,-2.33584 -13.02475,-6.36451 -18.79619,-10.05646 -1.95967,-1.25358 -3.70995,-2.27924 -3.88951,-2.27924 -0.17957,0 -2.88419,-1.65 -6.01028,-3.66667 -3.12609,-2.01666 -5.84429,-3.66666 -6.04046,-3.66666 -0.19616,0 -1.61071,-0.84664 -3.14344,-1.88143 -4.59489,-3.10213 -17.80329,-10.11238 -22.95345,-12.18235 -0.825,-0.33159 -2.175,-0.87785 -3,-1.21391 -0.825,-0.33607 -2.25,-0.79981 -3.16667,-1.03055 -0.91667,-0.23074 -3.31667,-0.8951 -5.33333,-1.47637 -5.10318,-1.4709 -20.3187,-1.47957 -25.33334,-0.0145 -2.01666,0.58921 -4.3831,1.28086 -5.25874,1.537 -3.29994,0.9653 -9.22243,4.21066 -13.33286,7.30606 -4.57698,3.44673 -11.3373,11.41816 -13.11684,15.4667 -0.6018,1.36911 -1.35837,3.08929 -1.68129,3.82262 -3.2675,7.42044 -5.12251,46.20134 -2.94326,61.53214 1.93121,13.58588 6.6078,23.076 15.99966,32.46786 8.25383,8.25384 16.83117,12.96848 28,15.39056 5.24205,1.1368 19.35082,0.75375 24.66667,-0.6697 z M 487.8673,382.5227 c -0.24246,-2.10833 -0.71404,-4.80833 -1.04797,-6 -1.68051,-5.99728 -2.17558,-7.49622 -3.79816,-11.5 -2.84173,-7.01207 -6.74913,-13.63128 -10.78749,-18.27419 -14.85367,-17.07728 -35.94082,-26.04946 -61.02148,-25.96347 -7.16314,0.0245 -9.34979,0.27906 -12.60436,1.46702 -6.69844,2.44501 -11.98026,1.46354 -14.09112,-2.61842 -1.99924,-3.86611 0.81374,-9.1956 5.47047,-10.36436 3.33147,-0.83614 1.44421,-2.60785 -11.62496,-10.91324 -11.79246,-7.49405 -16.66157,-11.2327 -23.10042,-17.73717 -5.43409,-5.48949 -11.75053,-12.31546 -14.74042,-15.9295 -1.82005,-2.2 -3.47318,-4.15 -3.67362,-4.33333 -1.88912,-1.72792 -12.06423,-16.5899 -15.29029,-22.33334 -1.7914,-3.18926 -6.13658,-11.84454 -6.86103,-13.66666 -0.36445,-0.91667 -0.89777,-2.26667 -1.18515,-3 -3.69765,-9.43555 -2.10558,-15.12888 4.26995,-15.26953 1.61293,-0.0356 3.39872,0.35651 4.03743,0.88647 0.6299,0.52264 3.1094,4.87264 5.51,9.66666 2.4006,4.79402 4.93146,9.51271 5.62412,10.48598 0.69268,0.97326 1.2594,1.97151 1.2594,2.21832 0,0.59275 12.13726,19.05745 13.37351,20.34543 0.5279,0.55 1.81885,2.14959 2.86877,3.55465 2.79078,3.73476 10.0151,11.11202 10.88167,11.11202 0.51413,0 0.43557,-0.983 -0.25305,-3.16667 -0.54925,-1.74167 -1.25297,-4.06667 -1.56384,-5.16667 -0.31086,-1.1 -0.90557,-3.2 -1.32157,-4.66666 -3.05047,-10.75498 -3.96467,-26.05661 -1.83589,-30.72877 1.40146,-3.07588 5.90144,-4.46399 9.36117,-2.88763 2.96677,1.35175 5.12995,8.40732 5.17965,16.89425 0.0231,3.94791 0.64561,7.16722 2.97562,15.38881 0.62349,2.2 1.28951,4.67944 1.48006,5.50986 0.19054,0.83042 0.61062,1.67312 0.9335,1.87267 0.32289,0.19956 0.58707,0.83107 0.58707,1.40335 0,1.28718 5.10112,11.90806 8.13531,16.93829 5.05439,8.37939 11.83559,15.59441 18.98143,20.19573 2.63087,1.69406 5.04952,3.0801 5.37478,3.0801 0.32525,0 1.77272,0.56807 3.21659,1.26238 2.93103,1.40942 10.07546,3.84372 17.62522,6.00538 5.97466,1.71067 19.92336,6.15009 21.33334,6.78971 0.55,0.2495 1.9,0.83081 3,1.2918 1.1,0.46099 3.40309,1.55279 5.11798,2.42623 1.93644,0.98627 3.27652,1.33154 3.53636,0.91111 0.6357,-1.02857 -3.36317,-8.96774 -7.90116,-15.68661 -3.52556,-5.21988 -12.74716,-15.31754 -16.75318,-18.34477 -6.87117,-5.19231 -16.77254,-9.98856 -20.62038,-9.98856 -1.85648,0 -15.08562,-3.35837 -16.64866,-4.22645 -5.28637,-2.93595 -6.40422,-7.58515 -2.7116,-11.27776 2.82937,-2.82937 8.74544,-2.98892 18.98064,-0.5119 4.3895,1.0623 4.83074,1.08844 5.11048,0.30275 0.77663,-2.18131 -24.70526,-28.06296 -37.3671,-37.95331 -1.40825,-1.1 -3.20161,-2.56051 -3.98525,-3.24558 -3.65164,-3.19232 -24.83161,-18.72808 -31.09147,-22.80597 -3.85,-2.50803 -7.1,-4.79743 -7.22222,-5.08758 -0.12222,-0.29014 -0.61049,-0.52753 -1.08504,-0.52753 -0.47454,0 -1.19865,-0.40466 -1.60912,-0.89925 -0.41047,-0.49459 -2.7722,-1.91353 -5.2483,-3.15321 -2.47609,-1.23968 -4.65198,-2.42442 -4.83532,-2.63276 -0.18333,-0.20834 -1.68333,-1.17218 -3.33333,-2.14186 -4.34862,-2.55562 -6.51942,-4.65769 -7.68106,-7.43788 -0.92473,-2.2132 -0.92229,-2.66697 0.0251,-4.66356 2.72694,-5.7466 9.43837,-4.9793 21.65591,2.47587 2.38333,1.45432 6.13091,3.67585 8.32796,4.93673 2.19705,1.26089 4.14705,2.51255 4.33333,2.78148 0.18629,0.26892 2.13871,1.65882 4.33871,3.08864 2.2,1.42984 4.15,2.77926 4.33333,2.99872 0.32109,0.38436 16.26876,11.51731 22.88474,15.97568 1.83045,1.23349 3.46813,1.91766 3.79798,1.58666 0.32878,-0.32994 0.25321,-4.91228 -0.17452,-10.58193 -1.54782,-20.51623 -1.16667,-25.24481 3.6003,-44.66667 0.35998,-1.46666 0.81598,-3.64444 1.01333,-4.83951 0.19735,-1.19507 0.62568,-2.33777 0.95183,-2.53935 0.32618,-0.20157 0.59303,-1.23108 0.59303,-2.2878 0,-1.05672 0.3,-2.10672 0.66667,-2.33334 0.36666,-0.22661 0.66666,-0.99838 0.66666,-1.71506 0,-0.71666 0.2692,-1.82396 0.59823,-2.46065 0.32903,-0.63669 1.12841,-2.44109 1.77641,-4.00979 1.81452,-4.39262 3.92494,-6.14783 7.39198,-6.14783 2.8825,0 4.87534,0.76017 6.87427,2.62219 1.17175,1.0915 1.35886,8.71986 0.24974,10.18222 -0.88233,1.16335 -5.23645,12.20558 -6.12329,15.52892 -4.84534,18.15731 -5.25029,40.4155 -1.0916,60 1.31632,6.19895 6.93501,16.37026 12.67983,22.95388 3.4743,3.98158 9.16202,10.17453 14.40875,15.68867 2.80371,2.9466 6.1996,6.55745 7.54643,8.02412 3.0213,3.29014 15.17342,19.38705 16.35692,21.66667 0.4759,0.91666 1.04985,1.81666 1.27546,2 1.33039,1.08113 17.37929,27.39092 19.51991,32 0.59603,1.28333 2.3228,5.03333 3.83728,8.33333 7.43581,16.20244 8.69968,18.21224 8.69968,13.83412 0,-1.62397 -0.31794,-3.66683 -2.10121,-13.50079 -0.93378,-5.14938 -1.69217,-7.89498 -4.64463,-16.81499 -4.24275,-12.81826 -6.10598,-17.04636 -19.03061,-43.18501 -6.79889,-13.75 -12.63055,-25.675 -12.95925,-26.5 -1.54965,-3.88946 -1.85854,-4.65274 -2.76532,-6.83333 -1.71286,-4.11901 -3.65324,-9.58295 -4.49822,-12.66667 -0.45214,-1.65 -1.06794,-3.75 -1.36846,-4.66666 -0.6796,-2.073 -2.33688,-10.76536 -3.2657,-17.12842 -0.88686,-6.07568 -0.90117,-17.78016 -0.0287,-23.48364 1.93409,-12.64358 3.29221,-18.84636 4.71751,-21.54556 0.3362,-0.6367 0.61127,-1.74399 0.61127,-2.46066 0,-0.71667 0.3,-1.48844 0.66667,-1.71506 0.36666,-0.22661 0.66666,-0.8527 0.66666,-1.3913 0,-0.53861 1.51495,-4.14375 3.36656,-8.01142 4.377,-9.14273 7.941,-12.93061 12.16638,-12.93061 2.15755,0 3.25329,0.38453 4.27425,1.5 3.17141,3.46496 2.68069,6.38952 -3.16013,18.83333 -2.09794,4.46964 -4.8337,12.85531 -5.92676,18.16667 -0.39615,1.925 -1.06028,5.04789 -1.47582,6.93975 -1.01544,4.62291 -0.97883,25.19678 0.0538,30.22692 1.5616,7.60706 3.5622,15.35178 5.16635,20 1.62598,4.7115 2.00221,5.70472 3.53541,9.33333 0.46478,1.1 1.08196,2.6 1.37152,3.33333 0.28955,0.73334 4.85021,10.18334 10.1348,21 5.2846,10.81667 10.43704,21.40684 11.44988,23.53372 1.01283,2.12687 2.18703,3.75764 2.60932,3.62392 0.69542,-0.22019 3.18726,-4.80022 4.4383,-8.15764 0.27326,-0.73333 0.83823,-2.18133 1.2555,-3.21778 0.63314,-1.57266 0.5523,-2.17932 -0.4886,-3.66667 -0.686,-0.98021 -1.36584,-2.08221 -1.51075,-2.44888 -0.14491,-0.36667 -3.18769,-5.08079 -6.76173,-10.47583 -3.57404,-5.39504 -6.49826,-10.09504 -6.49826,-10.44444 0,-0.34941 -0.225,-0.73528 -0.5,-0.85751 -1.14494,-0.50887 -4.02358,-7.63641 -6.14786,-15.22222 -0.46206,-1.65 -1.07774,-3.75 -1.3682,-4.66667 -2.22731,-7.02944 -3.02061,-20.66711 -1.42243,-24.45322 1.10995,-2.62948 4.68286,-4.48535 7.46064,-3.87524 2.0127,0.44206 4.64452,3.40302 4.64452,5.22536 0,0.56343 0.25952,1.1848 0.57671,1.38084 0.31718,0.19603 0.79179,1.63874 1.05467,3.20601 0.53899,3.21339 1.26909,7.62981 2.23445,13.51625 1.66537,10.15501 2.68894,11.37672 6.33506,7.5614 6.24454,-6.53431 11.88282,-16.00481 14.67889,-24.65584 4.08251,-12.63126 4.72411,-17.44053 4.12841,-30.94547 -0.64512,-14.62488 0.44202,-17.62675 6.38358,-17.62675 3.15987,0 5.7065,2.03382 7.43074,5.93445 1.20117,2.71732 1.36328,4.54226 1.42713,16.06555 0.0484,8.73781 -0.21229,14.09286 -0.79515,16.33333 -0.47696,1.83333 -1.33247,5.13333 -1.90114,7.33333 -0.56866,2.2 -1.27156,4.6 -1.56198,5.33334 -0.29043,0.73333 -1.21949,3.13333 -2.06458,5.33333 -0.84508,2.2 -2.52433,5.75382 -3.73165,7.89738 -1.20733,2.14355 -2.19514,4.05336 -2.19514,4.24401 0,0.5516 -4.54515,6.70203 -9.50246,12.85861 -2.50956,3.11667 -4.92314,6.12087 -5.36352,6.67599 -0.44038,0.55514 -1.22533,1.82816 -1.74433,2.82896 -0.90138,1.73813 -0.81026,1.99138 2.03448,5.65484 1.63796,2.10938 3.51957,3.9395 4.18136,4.06695 0.8027,0.15459 2.62225,-1.32304 5.46594,-4.43879 4.51884,-4.95117 12.2674,-11.34136 21.5952,-17.80944 3.11666,-2.16116 5.76666,-4.16544 5.88888,-4.45395 0.12223,-0.28851 0.51494,-0.52456 0.8727,-0.52456 0.35776,0 3.10776,-1.86539 6.11111,-4.1453 6.35607,-4.82504 14.72337,-13.19462 15.94092,-15.94525 0.46486,-1.0502 1.01929,-1.90945 1.23206,-1.90945 0.41411,0 3.34821,-6.35865 4.46053,-9.66667 2.89977,-8.62388 3.92387,-17.83914 2.87089,-25.83333 -0.44675,-3.39167 -1.07782,-7.06667 -1.40239,-8.16667 -1.47296,-4.99204 -3.50332,-13.7893 -4.29012,-18.58852 -0.81583,-4.97629 -0.56458,-8.09516 0.81781,-10.15179 0.95895,-1.42666 4.96369,-3.03758 6.55718,-2.63764 2.00693,0.50371 6.27376,4.21442 6.27376,5.45606 0,0.51699 0.265,1.46091 0.58889,2.09761 1.83454,3.60632 3.70716,9.78053 4.7277,15.58772 0.40948,2.33011 1.03076,5.8616 1.38063,7.84775 0.34986,1.98615 0.63059,7.38615 0.62383,12 -0.0236,16.13381 -3.67123,29.78185 -11.5158,43.08803 -3.12481,5.30038 -10.12492,12.40189 -17.44624,17.69894 -2.73806,1.98102 -4.98895,3.86559 -5.00198,4.18796 -0.013,0.32236 1.73106,0.38758 3.87576,0.14493 4.28294,-0.48456 6.8844,0.19746 9.26721,2.42957 2.12178,1.9876 2.11803,7.02636 -0.007,9.02246 -1.63092,1.53217 -8.57831,4.81692 -10.18799,4.81692 -0.54452,0 -1.51097,0.26378 -2.14766,0.58617 -0.63669,0.32239 -2.80762,1.1217 -4.82429,1.77625 -11.42045,3.7067 -29.464,16.72403 -37.38486,26.97092 -2.68512,3.47362 -4.69764,7.4829 -6.35826,12.66666 -1.8415,5.74839 -1.52857,19.41894 0.67766,29.60474 0.94566,4.36594 1.87725,8.09594 2.0702,8.28889 0.60156,0.60155 1.35548,-0.6272 6.07038,-9.89363 2.51863,-4.95 4.93964,-9.45 5.38002,-10 0.44037,-0.55 2.66072,-3.4873 4.93409,-6.52734 5.92993,-7.9297 23.67744,-25.77306 34.94411,-35.13284 2.2,-1.82764 5.2,-4.40966 6.66666,-5.7378 1.46667,-1.32815 5.66667,-5.03847 9.33334,-8.24516 9.66002,-8.44819 23.02808,-21.67176 28.35052,-28.0441 4.90002,-5.8666 13.4306,-18.65552 15.77262,-23.64609 5.44746,-11.60792 7.37718,-17.80071 9.55599,-30.66667 1.93076,-11.39964 4.0304,-15.33333 8.18457,-15.33333 1.78083,0 2.97055,0.56171 4.75577,2.24539 l 2.3808,2.24538 v 7.0341 c 0,4.14396 -0.42903,8.76822 -1.04418,11.25462 -1.29501,5.23432 -3.55826,13.0545 -4.35676,15.05384 -0.32948,0.825 -0.86802,2.175 -1.19674,3 -0.32872,0.825 -1.37872,3.2332 -2.33334,5.35156 -0.9546,2.11836 -1.73565,3.98606 -1.73565,4.15044 0,0.16438 -1.95,3.31348 -4.33333,6.998 -2.38334,3.68452 -4.33334,6.99182 -4.33334,7.34956 0,0.35774 -0.3,0.65044 -0.66666,0.65044 -0.36667,0 -0.67334,0.375 -0.6815,0.83334 -0.008,0.45833 -0.60148,1.58333 -1.3185,2.5 -0.71703,0.91666 -1.31036,2.21004 -1.31851,2.87418 -0.013,1.05832 0.37645,1.15376 3.15184,0.77242 1.74167,-0.2393 4.21667,-0.69832 5.5,-1.02006 9.61275,-2.40994 32.47539,-3.44944 41.92313,-1.90613 4.96947,0.81177 17.71154,3.76853 19.74354,4.58143 0.73333,0.29338 4.7388,1.6436 8.90113,3.00052 9.58587,3.12502 11.47447,4.1799 13.00093,7.26154 1.49407,3.0162 1.07354,6.28173 -1.1404,8.85561 -1.31866,1.533 -2.006,1.75367 -5.36813,1.72346 -4.3754,-0.0393 -5.98293,-0.55581 -16.0602,-5.15994 -17.24747,-7.88009 -48.29491,-7.8478 -71,0.0738 -7.30046,2.54708 -18.52737,8.07857 -24.52323,12.08259 -8.16119,5.45002 -14.25744,10.96876 -13.24022,11.98598 0.14736,0.14736 1.57942,-0.0205 3.18236,-0.37309 7.32528,-1.61116 12.51984,-2.08569 22.8318,-2.08569 13.00212,0 20.7511,1.05124 34.08262,4.62372 7.43866,1.99334 14.10094,5.26354 16.96154,8.32561 2.14305,2.29398 2.34065,7.84401 0.33334,9.36223 -2.22528,1.68308 -8.18974,1.25716 -14.74284,-1.0528 -3.23696,-1.14101 -7.23537,-2.31712 -8.88537,-2.61357 -1.65,-0.29645 -4.8,-0.86639 -7,-1.26654 -14.93417,-2.71629 -35.07079,-2.23636 -49.33333,1.17581 -9.19899,2.20076 -25.22799,9.59493 -32,14.76158 -3.69033,2.8155 -11.728,11.55392 -14.42624,15.68396 -2.50026,3.827 -6.82646,12.2291 -9.95464,19.33334 -0.60496,1.37388 -4.87094,14.44568 -5.8743,18 -0.31052,1.1 -0.9458,3.25269 -1.41172,4.78376 -0.46592,1.53107 -0.65181,3.29276 -0.41308,3.91488 0.3378,0.8803 1.1868,0.11521 3.82884,-3.45044 4.42212,-5.96799 5.69612,-7.32306 13.23444,-14.07654 28.18933,-25.25448 63.62751,-34.47202 106.0167,-27.57517 2.01666,0.32811 8.01666,1.52047 13.33333,2.64967 5.31667,1.1292 11.37205,2.06076 13.45641,2.07013 6.29539,0.0283 17.92666,-2.81717 25.12679,-6.14701 2.80853,-1.29888 7.93233,-4.3244 8.75013,-5.16684 0.18334,-0.18885 1.42287,-1.15486 2.75454,-2.1467 3.10393,-2.31189 8.12266,-7.33063 10.43453,-10.43458 0.99187,-1.33164 1.9984,-2.57116 2.23687,-2.7545 0.55826,-0.42927 5.24073,-10.0465 5.24073,-10.76391 0,-0.29894 1.07593,-2.22551 2.391,-4.28125 1.57147,-2.45665 3.15533,-4.05708 4.62107,-4.66951 2.867,-1.19792 3.02353,-1.50931 2.34193,-4.65889 -0.3126,-1.44454 -0.9084,-4.72644 -1.32393,-7.2931 -0.4156,-2.56667 -1.02314,-5.71667 -1.35007,-7 -0.327,-1.28334 -1.08353,-4.28334 -1.6812,-6.66667 -1.80493,-7.19734 -4.4272,-15.96083 -5.68533,-19 -0.30354,-0.73333 -1.196,-3.13333 -1.9832,-5.33333 -0.7872,-2.2 -1.88914,-5.05 -2.44874,-6.33334 -0.5596,-1.28333 -1.24933,-2.93333 -1.53273,-3.66666 -1.3372,-3.4601 -9.83553,-20.3905 -11.80247,-23.51295 -1.21713,-1.93212 -2.213,-3.64667 -2.213,-3.81011 0,-0.44891 -7.45913,-11.96038 -7.99833,-12.34361 -0.25793,-0.18333 -1.27347,-1.61762 -2.25673,-3.1873 -5.76094,-9.197 -21.71024,-26.93282 -34.10627,-37.92666 -8.57911,-7.60868 -27.87466,-22.21937 -29.34391,-22.21937 -0.27623,0 -1.43055,-0.69156 -2.56516,-1.5368 -2.5104,-1.87014 -9.35036,-5.77986 -18.39626,-10.515287 -3.00679,-1.57398 -14.03,-6.61454 -14.46544,-6.61454 -0.18318,0 -1.2784,-0.41483 -2.43381,-0.92184 -1.15541,-0.50701 -3.15075,-1.28728 -4.43409,-1.73395 -1.28333,-0.44666 -2.93333,-1.0673 -3.66666,-1.3792 -1.61139,-0.68536 -11.2109,-3.82424 -14,-4.57776 -11.66877,-3.15256 -15.8079,-4.10972 -24.33334,-5.62699 -11.37751,-2.02485 -29.95199,-3.77399 -40,-3.76675 -6.16948,0.005 -14.44634,0.63525 -27.33333,2.08316 -15.89147,1.78547 -39.51319,7.36899 -50.33333,11.89741 -0.73334,0.30691 -2.38334,0.92347 -3.66667,1.37013 -1.28333,0.44667 -3.23333,1.19572 -4.33333,1.66458 -1.1,0.46886 -3.65,1.54466 -5.66667,2.39067 -4.0068,1.68089 -17.77065,8.616547 -22.86847,11.523497 -3.8084,2.17169 -17.84376,11.24679 -19.58005,12.66025 -0.66998,0.5454 -3.36161,2.5873 -5.98141,4.53755 -2.6198,1.95025 -6.5198,5.01889 -8.66666,6.81921 -5.19604,4.35726 -24.76775,24.0267 -27.25726,27.39336 -1.08454,1.46667 -2.13968,2.81667 -2.34475,3 -0.20507,0.18334 -2.02089,2.43334 -4.03517,5 -12.22966,15.58351 -23.63365,35.53994 -31.3342,54.83334 -0.32928,0.825 -0.88156,2.175 -1.2273,3 -0.98666,2.35442 -5.09104,14.51298 -6.02002,17.83333 -0.46164,1.65 -1.08246,3.75 -1.3796,4.66667 -0.47239,1.45734 -2.72847,11.59878 -4.59753,20.66666 -0.67801,3.28944 -1.55943,11.33678 -1.24069,11.32754 0.10988,-0.003 3.94978,-0.45058 8.53311,-0.9942 8.73026,-1.0355 23.27493,-1.24432 29.06453,-0.41729 1.86883,0.26695 3.74383,0.37005 4.16667,0.22911 0.42423,-0.14141 0.7688,-1.56189 0.7688,-3.16934 0,-5.81076 2.16591,-8.56556 6.73449,-8.56556 4.69617,0 5.69123,1.04186 10.75076,11.25641 11.4677,23.15181 33.23338,47.74693 51.84808,58.5881 2.63262,1.53323 14.6383,7.46896 18.33334,9.06419 1.62316,0.70075 17.34208,6.57222 19.66666,7.34606 1.5346,0.51086 5.91672,2.08036 15.33334,5.49176 2.01666,0.7306 4.56666,1.71329 5.66666,2.18377 1.1,0.47048 4.35321,1.82606 7.22935,3.01241 5.73535,2.3657 18.63918,9.2271 18.99287,10.09915 0.12223,0.30134 0.57223,0.5559 1,0.56568 0.9163,0.0209 9.3086,6.68733 14.1876,11.26985 2.899,2.72284 4.21853,3.68582 5.47149,3.99306 0.11805,0.0289 0.0163,-1.67236 -0.22621,-3.7807 z m 227.01184,-59.80272 c 2.3832,-0.53317 5.38306,-1.26292 6.6664,-1.62166 1.28333,-0.35875 3.08333,-0.86082 4,-1.11572 3.0794,-0.85628 3.334,-1.84636 3.32313,-12.92065 -0.007,-5.70492 -0.25547,-10.75914 -0.5552,-11.23161 -0.3836,-0.60459 -1.31853,0.28396 -3.15647,3 -1.43633,2.12247 -2.7278,4.13301 -2.87,4.46787 -0.97853,2.30482 -11.6918,13.25426 -16.13206,16.48774 -2.16854,1.57914 -3.94274,3.10341 -3.94274,3.38729 0,0.8647 8.06587,0.57608 12.66694,-0.45326 z"
       id="path339" />
  </g>
</svg>
